<?xml version="1.0" encoding="UTF-8" standalone="no"?>
<!-- Generator: Adobe Illustrator 16.0.0, SVG Export Plug-In . SVG Version: 6.00 Build 0)  -->

<svg
   xmlns:dc="http://purl.org/dc/elements/1.1/"
   xmlns:cc="http://creativecommons.org/ns#"
   xmlns:rdf="http://www.w3.org/1999/02/22-rdf-syntax-ns#"
   xmlns:svg="http://www.w3.org/2000/svg"
   xmlns="http://www.w3.org/2000/svg"
   xmlns:xlink="http://www.w3.org/1999/xlink"
   xmlns:sodipodi="http://sodipodi.sourceforge.net/DTD/sodipodi-0.dtd"
   xmlns:inkscape="http://www.inkscape.org/namespaces/inkscape"
   version="1.1"
   id="Calque_1"
   x="0px"
   y="0px"
   width="140.7238"
   height="163.06"
   viewBox="0 0 140.7238 163.06"
   enable-background="new 0 0 283.465 283.465"
   xml:space="preserve"
   inkscape:version="0.48.4 r9939"
   sodipodi:docname="logo-bcsf.svg"><metadata
     id="metadata397"><rdf:RDF><cc:Work
         rdf:about=""><dc:format>image/svg+xml</dc:format><dc:type
           rdf:resource="http://purl.org/dc/dcmitype/StillImage" /></cc:Work></rdf:RDF></metadata><defs
     id="defs395"><filter
       inkscape:collect="always"
       id="filter4264"><feGaussianBlur
         inkscape:collect="always"
         stdDeviation="2.7775385"
         id="feGaussianBlur4266" /></filter><filter
       inkscape:collect="always"
       id="filter4703"
       x="-0.090709238"
       width="1.1814185"
       y="-0.11656453"
       height="1.2331291"><feGaussianBlur
         inkscape:collect="always"
         stdDeviation="3.4310769"
         id="feGaussianBlur4705" /></filter></defs><sodipodi:namedview
     pagecolor="#ffffff"
     bordercolor="#666666"
     borderopacity="1"
     objecttolerance="10"
     gridtolerance="10"
     guidetolerance="10"
     inkscape:pageopacity="0"
     inkscape:pageshadow="2"
     inkscape:window-width="1871"
     inkscape:window-height="1176"
     id="namedview393"
     showgrid="false"
     fit-margin-top="0"
     fit-margin-left="0"
     fit-margin-right="0"
     fit-margin-bottom="0"
     inkscape:zoom="3.3302172"
     inkscape:cx="48.601596"
     inkscape:cy="95.429013"
     inkscape:window-x="49"
     inkscape:window-y="24"
     inkscape:window-maximized="1"
     inkscape:current-layer="Calque_1" /><g
     id="g3"
     transform="translate(-72.7012,-61.733)"><path
       d="m 111.76,217.76 c 0,2.533 -1.201,4.406 -3.602,5.623 -1.854,0.939 -4.182,1.41 -6.99,1.41 H 80.725 c -1.129,0 -1.693,-0.57 -1.693,-1.715 v -23.035 c 0,-1.129 0.564,-1.693 1.693,-1.693 h 20.162 c 1.809,0 3.459,0.145 4.949,0.434 1.605,0.391 2.965,1.107 4.08,2.15 1.229,1.172 1.844,2.533 1.844,4.08 0,1.506 -0.053,2.592 -0.158,3.258 -0.029,0.131 -0.121,0.348 -0.281,0.65 -0.16,0.305 -0.375,0.688 -0.65,1.15 -0.537,0.928 -0.805,1.441 -0.805,1.543 0,0.072 0.268,0.527 0.805,1.367 0.275,0.42 0.49,0.773 0.65,1.064 0.16,0.289 0.252,0.514 0.281,0.674 0.053,0.23 0.092,0.596 0.119,1.096 0.025,0.498 0.039,1.147 0.039,1.944 z m -4.819,-1.34 c 0,-1.818 -1.99,-2.729 -5.973,-2.729 h -17.12 v 7.123 h 16.787 c 3.895,0 5.98,-0.83 6.254,-2.49 0.02,-0.086 0.031,-0.289 0.041,-0.605 0.009,-0.319 0.011,-0.75 0.011,-1.299 z m 0.106,-9.149 c 0,-0.475 -0.035,-1.207 -0.105,-2.201 -0.143,-1.828 -2.23,-2.742 -6.258,-2.742 h -16.73 v 7.385 h 16.908 c 4.122,0 6.185,-0.815 6.185,-2.442 z"
       id="path5"
       inkscape:connector-curvature="0"
       style="fill:#c04826" /><path
       d="m 144.549,200.592 c 0,1.158 -0.564,1.736 -1.695,1.736 h -17.191 c -4.172,0 -6.26,0.83 -6.26,2.49 v 13.051 c 0,1.963 2.311,2.945 6.934,2.945 h 16.408 c 1.176,0 1.762,0.66 1.762,1.979 0,1.334 -0.586,2 -1.762,2 h -16.408 c -2.219,0 -3.812,-0.086 -4.781,-0.262 -1.059,-0.203 -2.16,-0.594 -3.301,-1.172 -1.303,-0.682 -2.217,-1.393 -2.736,-2.131 -0.623,-0.84 -0.934,-1.934 -0.934,-3.283 v -13.172 c 0,-1.666 0.76,-3.086 2.279,-4.26 1.273,-0.969 2.824,-1.621 4.646,-1.955 0.465,-0.062 1.029,-0.113 1.695,-0.152 0.668,-0.037 1.457,-0.057 2.369,-0.057 h 17.279 c 1.131,0.001 1.696,0.747 1.696,2.243 z"
       id="path7"
       inkscape:connector-curvature="0"
       style="fill:#c04826" /><path
       d="m 158.037,198.41 c 0.018,-0.002 0.033,-0.002 0.053,-0.004 m 0,3.932 c -3.82,0.236 -5.73,1.141 -5.73,2.713 v 1.844 c 0,1.143 0.986,1.887 2.953,2.234 0.375,0.072 0.922,0.127 1.639,0.162 0.717,0.037 1.598,0.055 2.639,0.055 h 6.451 c 3.082,0 5.514,0.398 7.295,1.193 2.809,1.158 4.213,2.938 4.213,5.338 v 2.365 c 0,1.418 -0.227,2.523 -0.676,3.318 -1.201,2.156 -4.836,3.232 -10.9,3.232 h -16.705 c -1.117,0 -1.674,-0.572 -1.674,-1.717 0,-0.783 0.088,-1.326 0.262,-1.631 0.246,-0.422 0.717,-0.631 1.412,-0.631 h 16.707 c 4.504,0 6.756,-0.828 6.756,-2.484 v -2.268 c 0,-1.611 -2.18,-2.49 -6.537,-2.635 l -8.012,-0.26 c -0.375,-0.016 -0.91,-0.043 -1.596,-0.084 -0.688,-0.039 -1.533,-0.098 -2.531,-0.178 -1.736,-0.203 -3.227,-0.775 -4.471,-1.717 -1.361,-1.041 -2.041,-2.41 -2.041,-4.105 v -2 c 0,-3.084 1.709,-5.119 5.131,-6.105 1.135,-0.291 2.924,-0.48 5.363,-0.568 m 0.052,-0.003 c 2.744,-0.098 18.605,-0.057 18.248,-0.057 1.131,0 1.598,0.656 1.598,2.141 0,0.857 -0.314,1.48 -0.994,1.699 -0.102,0.059 -15.385,0.086 -16.662,0.086 -0.787,0 -1.518,0.021 -2.189,0.062"
       id="path9"
       inkscape:connector-curvature="0"
       style="fill:#c04826" /><path
       d="m 209.088,211.691 c 0,1.334 -0.602,2 -1.807,2 H 184.18 v 9.389 c 0,1.143 -0.564,1.713 -1.693,1.713 -1.201,0 -1.895,-0.051 -2.082,-0.156 -0.695,-0.217 -1.043,-0.738 -1.043,-1.562 v -18.561 c 0,-2.111 1.361,-3.732 4.082,-4.861 2.084,-0.869 4.373,-1.303 6.865,-1.303 h 16.873 c 1.145,0 1.781,0.746 1.781,2.242 0,0.236 -0.221,1.326 -1.152,1.469 -2.043,0.314 -12.982,0.268 -13.895,0.268 -6.49,0 -9.736,0.801 -9.736,2.396 v 4.988 h 23.102 c 1.204,0 1.806,0.66 1.806,1.978 z"
       id="path11"
       inkscape:connector-curvature="0"
       style="fill:#c04826" /></g><g
     id="g13"
     transform="translate(-72.7012,-61.733)"><g
       id="g15"><defs
         id="defs17"><path
           id="SVGID_1_"
           d="m 114.955,74.358 0,0 -31.766,28.244 c -3.908,3.476 -5.682,8.816 -4.627,13.938 l 8.578,41.634 c 1.055,5.121 4.793,9.326 9.758,10.975 l 40.342,13.389 c 4.963,1.648 10.475,0.514 14.385,-2.963 l 31.766,-28.244 c 3.908,-3.477 5.682,-8.816 4.625,-13.938 l -8.574,-41.634 c -1.057,-5.122 -4.795,-9.328 -9.76,-10.975 L 129.34,71.395 c -4.963,-1.649 -10.477,-0.512 -14.385,2.963 z"
           inkscape:connector-curvature="0" /></defs><clipPath
         id="SVGID_2_"><use
           xlink:href="#SVGID_1_"
           overflow="visible"
           id="use21"
           style="overflow:visible"
           x="0"
           y="0"
           width="283.465"
           height="283.465" /></clipPath><rect
         x="77.508003"
         y="69.746002"
         clip-path="url(#SVGID_2_)"
         width="111.564"
         height="114.44"
         id="rect23"
         style="fill:#6e7cb3" /><path
         clip-path="url(#SVGID_2_)"
         d="m 115.128,146.893 c -12.426,-13.254 -18.303,-30.29 -17.761,-47.119 0.271,-8.414 2.148,-16.777 5.613,-24.589 1.732,-3.906 3.862,-7.675 6.388,-11.243 v 4.805 h 80.704 v 92.369 h 1.754 c -1.941,0.941 -3.918,1.781 -5.923,2.521 -8.02,2.954 -16.485,4.288 -24.899,4.017 -16.829,-0.545 -33.451,-7.508 -45.876,-20.761 z"
         id="path25"
         inkscape:connector-curvature="0"
         style="fill:#6e7cb3" /><path
         clip-path="url(#SVGID_2_)"
         d="M 115.441,146.599 C 103.096,133.431 97.257,116.507 97.796,99.788 c 0.27,-8.359 2.134,-16.667 5.576,-24.428 1.722,-3.881 3.838,-7.625 6.347,-11.17 v 4.557 h 80.353 v 91.982 h 1.566 c -1.929,0.936 -3.893,1.77 -5.885,2.504 -7.967,2.935 -16.377,4.26 -24.736,3.99 -16.718,-0.539 -33.232,-7.457 -45.576,-20.624 z"
         id="path27"
         inkscape:connector-curvature="0"
         style="fill:#6f7db4" /><path
         clip-path="url(#SVGID_2_)"
         d="M 115.755,146.305 C 103.492,133.224 97.692,116.41 98.227,99.802 c 0.268,-8.304 2.12,-16.558 5.541,-24.268 1.71,-3.855 3.812,-7.574 6.305,-11.096 v 4.309 h 80 v 91.595 h 1.379 c -1.916,0.93 -3.867,1.759 -5.846,2.487 -7.914,2.916 -16.27,4.232 -24.574,3.965 -16.61,-0.537 -33.014,-7.409 -45.277,-20.489 z"
         id="path29"
         inkscape:connector-curvature="0"
         style="fill:#707eb4" /><path
         clip-path="url(#SVGID_2_)"
         d="M 116.068,146.01 C 103.886,133.016 98.125,116.314 98.657,99.816 c 0.267,-8.25 2.106,-16.448 5.503,-24.107 1.699,-3.83 3.787,-7.524 6.263,-11.023 v 4.061 h 79.649 v 88.139 h 6.789 c -3.651,2.245 -7.473,4.091 -11.404,5.539 -7.862,2.897 -16.162,4.205 -24.412,3.939 -16.499,-0.533 -32.795,-7.359 -44.977,-20.354 z"
         id="path31"
         inkscape:connector-curvature="0"
         style="fill:#717fb5" /><path
         clip-path="url(#SVGID_2_)"
         d="M 116.383,145.717 C 104.281,132.809 98.558,116.218 99.086,99.829 c 0.265,-8.194 2.092,-16.338 5.467,-23.946 1.688,-3.804 3.762,-7.474 6.221,-10.949 v 3.812 h 79.299 v 87.773 h 6.562 c -3.626,2.229 -7.422,4.062 -11.326,5.502 -7.81,2.877 -16.055,4.176 -24.25,3.912 -16.389,-0.529 -32.576,-7.309 -44.676,-20.216 z"
         id="path33"
         inkscape:connector-curvature="0"
         style="fill:#727fb5" /><path
         clip-path="url(#SVGID_2_)"
         d="m 116.696,145.422 c -12.02,-12.821 -17.704,-29.3 -17.179,-45.579 0.262,-8.139 2.077,-16.229 5.43,-23.785 1.676,-3.778 3.736,-7.424 6.179,-10.876 v 3.564 h 78.946 v 87.407 h 6.339 c -3.603,2.215 -7.373,4.036 -11.252,5.465 -7.758,2.858 -15.947,4.148 -24.087,3.886 -16.278,-0.525 -32.356,-7.261 -44.376,-20.082 z"
         id="path35"
         inkscape:connector-curvature="0"
         style="fill:#7380b6" /><path
         clip-path="url(#SVGID_2_)"
         d="M 117.01,145.128 C 105.072,132.394 99.425,116.026 99.948,99.857 c 0.261,-8.084 2.063,-16.119 5.393,-23.625 1.665,-3.753 3.711,-7.374 6.137,-10.802 v 3.316 h 78.596 v 87.04 h 6.113 c -3.578,2.2 -7.323,4.009 -11.176,5.428 -7.704,2.839 -15.838,4.12 -23.923,3.859 -16.17,-0.521 -32.14,-7.211 -44.078,-19.945 z"
         id="path37"
         inkscape:connector-curvature="0"
         style="fill:#7481b6" /><path
         clip-path="url(#SVGID_2_)"
         d="M 117.323,144.834 C 105.467,132.186 99.858,115.93 100.377,99.871 c 0.259,-8.029 2.049,-16.01 5.355,-23.465 1.654,-3.728 3.687,-7.323 6.096,-10.729 v 3.068 h 78.244 v 86.674 h 5.889 c -3.554,2.185 -7.273,3.98 -11.1,5.391 -7.652,2.82 -15.73,4.093 -23.76,3.834 -16.059,-0.518 -31.92,-7.163 -43.778,-19.81 z"
         id="path39"
         inkscape:connector-curvature="0"
         style="fill:#7582b7" /><path
         clip-path="url(#SVGID_2_)"
         d="m 117.637,144.539 c -11.775,-12.561 -17.346,-28.706 -16.831,-44.654 0.257,-7.975 2.036,-15.9 5.32,-23.304 1.642,-3.702 3.66,-7.273 6.054,-10.655 v 2.82 h 77.893 v 86.307 h 5.664 c -3.529,2.171 -7.224,3.955 -11.023,5.354 -7.6,2.8 -15.623,4.063 -23.598,3.807 -15.95,-0.515 -31.703,-7.113 -43.479,-19.675 z"
         id="path41"
         inkscape:connector-curvature="0"
         style="fill:#7682b7" /><path
         clip-path="url(#SVGID_2_)"
         d="m 117.951,144.246 c -11.695,-12.475 -17.227,-28.509 -16.716,-44.348 0.255,-7.919 2.021,-15.79 5.283,-23.143 1.631,-3.677 3.636,-7.224 6.013,-10.582 v 2.572 h 77.541 v 85.94 h 5.438 c -3.505,2.155 -7.173,3.927 -10.947,5.317 -7.548,2.78 -15.516,4.035 -23.435,3.78 -15.838,-0.509 -31.482,-7.062 -43.177,-19.536 z"
         id="path43"
         inkscape:connector-curvature="0"
         style="fill:#7783b8" /><path
         clip-path="url(#SVGID_2_)"
         d="m 118.265,143.951 c -11.614,-12.388 -17.106,-28.31 -16.599,-44.039 0.254,-7.864 2.008,-15.68 5.246,-22.981 1.619,-3.651 3.609,-7.173 5.97,-10.508 v 2.324 h 77.19 v 85.574 h 5.215 c -3.481,2.14 -7.125,3.899 -10.872,5.28 -7.495,2.762 -15.408,4.009 -23.272,3.755 -15.729,-0.508 -31.264,-7.016 -42.878,-19.405 z"
         id="path45"
         inkscape:connector-curvature="0"
         style="fill:#7884b8" /><path
         clip-path="url(#SVGID_2_)"
         d="m 118.578,143.657 c -11.532,-12.301 -16.986,-28.112 -16.482,-43.73 0.252,-7.81 1.993,-15.571 5.209,-22.822 1.607,-3.625 3.584,-7.123 5.928,-10.435 v 2.076 h 76.84 v 85.207 h 4.989 c -3.456,2.126 -7.074,3.873 -10.796,5.244 -7.442,2.742 -15.3,3.979 -23.109,3.728 -15.62,-0.504 -31.047,-6.966 -42.579,-19.268 z"
         id="path47"
         inkscape:connector-curvature="0"
         style="fill:#7985b9" /><path
         clip-path="url(#SVGID_2_)"
         d="m 118.892,143.363 c -11.451,-12.215 -16.867,-27.915 -16.366,-43.423 0.25,-7.754 1.979,-15.461 5.172,-22.661 1.597,-3.6 3.56,-7.072 5.887,-10.361 v 1.828 h 76.488 v 84.841 h 4.764 c -3.432,2.11 -7.023,3.845 -10.719,5.206 -7.391,2.723 -15.193,3.952 -22.947,3.702 -15.51,-0.5 -30.828,-6.917 -42.279,-19.132 z"
         id="path49"
         inkscape:connector-curvature="0"
         style="fill:#7a85b9" /><path
         clip-path="url(#SVGID_2_)"
         d="m 119.206,143.069 c -11.37,-12.128 -16.748,-27.716 -16.251,-43.115 0.248,-7.699 1.965,-15.352 5.136,-22.5 1.585,-3.574 3.534,-7.022 5.845,-10.288 v 1.58 h 76.137 v 84.474 h 4.539 c -3.408,2.095 -6.975,3.817 -10.644,5.169 -7.338,2.704 -15.085,3.924 -22.784,3.676 -15.399,-0.497 -30.608,-6.868 -41.978,-18.996 z"
         id="path51"
         inkscape:connector-curvature="0"
         style="fill:#7a86ba" /><path
         clip-path="url(#SVGID_2_)"
         d="m 119.52,142.775 c -11.289,-12.042 -16.628,-27.519 -16.135,-42.807 0.246,-7.645 1.951,-15.242 5.1,-22.339 1.574,-3.548 3.51,-6.972 5.804,-10.214 v 1.332 h 75.784 v 84.107 h 4.314 c -3.384,2.08 -6.926,3.791 -10.568,5.133 -7.285,2.685 -14.977,3.896 -22.621,3.649 -15.289,-0.493 -30.389,-6.82 -41.678,-18.861 z"
         id="path53"
         inkscape:connector-curvature="0"
         style="fill:#7b87ba" /><path
         clip-path="url(#SVGID_2_)"
         d="m 119.833,142.481 c -11.208,-11.955 -16.509,-27.32 -16.019,-42.5 0.244,-7.589 1.937,-15.132 5.062,-22.178 1.562,-3.523 3.484,-6.922 5.762,-10.141 v 1.084 h 75.434 v 83.741 h 4.09 c -3.359,2.065 -6.875,3.763 -10.492,5.096 -7.232,2.665 -14.869,3.867 -22.458,3.622 -15.179,-0.489 -30.171,-6.769 -41.379,-18.724 z"
         id="path55"
         inkscape:connector-curvature="0"
         style="fill:#7c88bb" /><path
         clip-path="url(#SVGID_2_)"
         d="m 120.146,142.187 c -11.126,-11.868 -16.389,-27.123 -15.902,-42.191 0.243,-7.535 1.924,-15.023 5.026,-22.018 1.552,-3.498 3.458,-6.872 5.719,-10.067 v 0.836 h 75.083 v 83.374 h 3.863 c -3.334,2.05 -6.824,3.735 -10.414,5.059 -7.181,2.646 -14.762,3.84 -22.296,3.597 -15.069,-0.488 -29.952,-6.722 -41.079,-18.59 z"
         id="path57"
         inkscape:connector-curvature="0"
         style="fill:#7d89bb" /><path
         clip-path="url(#SVGID_2_)"
         d="m 120.461,141.893 c -11.045,-11.781 -16.27,-26.924 -15.787,-41.883 0.241,-7.479 1.909,-14.913 4.99,-21.857 1.54,-3.472 3.434,-6.822 5.678,-9.994 v 0.588 h 74.73 v 83.008 h 3.641 c -3.311,2.035 -6.775,3.709 -10.34,5.021 -7.129,2.626 -14.654,3.812 -22.134,3.57 -14.959,-0.483 -29.733,-6.672 -40.778,-18.453 z"
         id="path59"
         inkscape:connector-curvature="0"
         style="fill:#7e89bc" /><path
         clip-path="url(#SVGID_2_)"
         d="m 120.774,141.599 c -10.964,-11.695 -16.149,-26.727 -15.671,-41.575 0.24,-7.425 1.896,-14.804 4.953,-21.697 1.529,-3.447 3.408,-6.772 5.637,-9.92 v 0.34 h 74.379 v 82.641 h 3.416 c -3.286,2.021 -6.726,3.682 -10.264,4.985 -7.076,2.607 -14.547,3.784 -21.971,3.544 -14.849,-0.479 -29.515,-6.624 -40.479,-18.318 z"
         id="path61"
         inkscape:connector-curvature="0"
         style="fill:#7f8abc" /><path
         clip-path="url(#SVGID_2_)"
         d="m 121.088,141.305 c -10.883,-11.608 -16.03,-26.528 -15.555,-41.268 0.238,-7.369 1.882,-14.693 4.917,-21.536 1.518,-3.421 3.383,-6.722 5.595,-9.847 v 0.092 h 74.027 v 82.274 h 3.189 c -3.262,2.005 -6.676,3.654 -10.188,4.948 -7.023,2.588 -14.438,3.756 -21.807,3.518 -14.738,-0.475 -29.295,-6.574 -40.178,-18.181 z"
         id="path63"
         inkscape:connector-curvature="0"
         style="fill:#808bbd" /><path
         clip-path="url(#SVGID_2_)"
         d="m 121.401,141.01 c -10.802,-11.521 -15.91,-26.331 -15.438,-40.959 0.236,-7.314 1.867,-14.584 4.88,-21.375 1.507,-3.396 3.358,-6.671 5.554,-9.773 1.098,-1.551 2.28,-3.059 3.549,-4.516 v 4.359 h 70.127 v 81.908 h 2.965 c -3.237,1.99 -6.626,3.627 -10.111,4.911 -6.971,2.568 -14.33,3.728 -21.645,3.491 -14.63,-0.471 -29.079,-6.524 -39.881,-18.046 z"
         id="path65"
         inkscape:connector-curvature="0"
         style="fill:#818cbd" /><path
         clip-path="url(#SVGID_2_)"
         d="m 121.716,140.716 c -10.72,-11.435 -15.79,-26.132 -15.322,-40.651 0.233,-7.259 1.853,-14.474 4.843,-21.214 1.494,-3.37 3.332,-6.621 5.511,-9.7 1.089,-1.539 2.264,-3.035 3.523,-4.482 v 4.078 h 69.802 v 81.541 h 2.74 c -3.213,1.977 -6.576,3.601 -10.035,4.875 -6.918,2.549 -14.223,3.699 -21.482,3.465 -14.521,-0.47 -28.86,-6.477 -39.58,-17.912 z"
         id="path67"
         inkscape:connector-curvature="0"
         style="fill:#828cbe" /><path
         clip-path="url(#SVGID_2_)"
         d="m 122.029,140.422 c -10.639,-11.348 -15.671,-25.935 -15.206,-40.343 0.232,-7.205 1.839,-14.365 4.806,-21.054 1.484,-3.344 3.308,-6.571 5.47,-9.626 1.081,-1.528 2.247,-3.013 3.497,-4.448 v 3.795 h 69.477 v 81.175 h 2.516 c -3.188,1.96 -6.525,3.572 -9.959,4.837 -6.866,2.53 -14.115,3.672 -21.319,3.439 -14.411,-0.465 -28.643,-6.426 -39.282,-17.775 z"
         id="path69"
         inkscape:connector-curvature="0"
         style="fill:#838dbe" /><path
         clip-path="url(#SVGID_2_)"
         d="m 122.343,140.128 c -10.558,-11.262 -15.552,-25.737 -15.091,-40.036 0.23,-7.149 1.825,-14.255 4.77,-20.893 1.473,-3.319 3.282,-6.521 5.428,-9.554 1.072,-1.516 2.229,-2.99 3.471,-4.414 v 3.514 h 69.152 v 80.808 h 2.29 c -3.164,1.946 -6.477,3.546 -9.884,4.801 -6.813,2.511 -14.007,3.644 -21.156,3.413 -14.3,-0.461 -28.423,-6.377 -38.98,-17.639 z"
         id="path71"
         inkscape:connector-curvature="0"
         style="fill:#848ebf" /><path
         clip-path="url(#SVGID_2_)"
         d="m 122.656,139.834 c -10.477,-11.175 -15.432,-25.539 -14.974,-39.728 0.229,-7.095 1.812,-14.146 4.733,-20.732 1.461,-3.293 3.256,-6.47 5.385,-9.479 1.064,-1.504 2.212,-2.967 3.443,-4.38 v 3.231 h 68.828 v 80.441 h 2.065 c -3.14,1.93 -6.427,3.518 -9.808,4.763 -6.762,2.491 -13.899,3.616 -20.994,3.388 -14.187,-0.458 -28.201,-6.328 -38.678,-17.504 z"
         id="path73"
         inkscape:connector-curvature="0"
         style="fill:#858fbf" /><path
         clip-path="url(#SVGID_2_)"
         d="m 122.971,139.54 c -10.396,-11.088 -15.312,-25.341 -14.858,-39.42 0.228,-7.039 1.797,-14.035 4.696,-20.571 1.449,-3.268 3.23,-6.42 5.344,-9.406 1.057,-1.493 2.195,-2.943 3.416,-4.346 v 2.95 h 68.504 v 80.074 h 1.84 c -3.115,1.916 -6.376,3.491 -9.73,4.728 -6.709,2.472 -13.791,3.587 -20.831,3.36 -14.081,-0.456 -27.987,-6.28 -38.381,-17.369 z"
         id="path75"
         inkscape:connector-curvature="0"
         style="fill:#8690c0" /><path
         clip-path="url(#SVGID_2_)"
         d="m 123.284,139.246 c -20.629,-22.004 -19.514,-56.564 2.49,-77.192 v 6.692 h 64.298 v 79.707 h 1.615 c -3.091,1.901 -6.326,3.464 -9.654,4.689 -6.656,2.453 -13.684,3.561 -20.669,3.335 -13.969,-0.45 -27.766,-6.229 -38.08,-17.231 z"
         id="path77"
         inkscape:connector-curvature="0"
         style="fill:#8790c0" /><path
         clip-path="url(#SVGID_2_)"
         d="m 123.598,138.952 c -20.466,-21.83 -19.359,-56.118 2.471,-76.584 v 6.378 h 64.004 v 79.342 h 1.391 c -3.066,1.885 -6.277,3.436 -9.579,4.652 -6.604,2.434 -13.576,3.531 -20.506,3.309 -13.86,-0.447 -27.549,-6.182 -37.781,-17.097 z"
         id="path79"
         inkscape:connector-curvature="0"
         style="fill:#8791c1" /><path
         clip-path="url(#SVGID_2_)"
         d="m 123.911,138.658 c -20.303,-21.657 -19.206,-55.673 2.451,-75.977 v 6.065 h 63.71 v 78.975 h 1.164 c -3.042,1.871 -6.227,3.409 -9.502,4.616 -6.552,2.414 -13.469,3.504 -20.343,3.282 -13.748,-0.444 -27.329,-6.133 -37.48,-16.961 z"
         id="path81"
         inkscape:connector-curvature="0"
         style="fill:#8892c1" /><path
         clip-path="url(#SVGID_2_)"
         d="M 124.225,138.364 C 104.084,116.88 105.173,83.136 126.657,62.995 v 5.751 h 63.416 v 78.608 h 0.941 c -3.019,1.856 -6.178,3.382 -9.428,4.579 -6.499,2.395 -13.36,3.475 -20.18,3.255 -13.639,-0.44 -27.111,-6.083 -37.181,-16.824 z"
         id="path83"
         inkscape:connector-curvature="0"
         style="fill:#8993c2" /><path
         clip-path="url(#SVGID_2_)"
         d="M 124.539,138.069 C 104.56,116.758 105.64,83.287 126.95,63.308 v 5.438 h 63.122 v 78.242 h 0.717 c -2.994,1.84 -6.128,3.354 -9.352,4.541 -6.447,2.375 -13.253,3.447 -20.018,3.229 -13.528,-0.436 -26.891,-6.033 -36.88,-16.689 z"
         id="path85"
         inkscape:connector-curvature="0"
         style="fill:#8a94c2" /><path
         clip-path="url(#SVGID_2_)"
         d="m 124.853,137.775 c -19.816,-21.137 -18.745,-54.337 2.393,-74.153 v 5.124 h 62.827 v 77.875 h 0.49 c -2.969,1.825 -6.077,3.326 -9.274,4.504 -6.395,2.356 -13.146,3.42 -19.854,3.204 -13.42,-0.433 -26.674,-5.985 -36.582,-16.554 z"
         id="path87"
         inkscape:connector-curvature="0"
         style="fill:#8b94c3" /><path
         clip-path="url(#SVGID_2_)"
         d="m 125.166,137.481 c -19.653,-20.964 -18.592,-53.892 2.373,-73.545 v 4.81 h 62.533 v 77.508 h 0.266 c -2.945,1.812 -6.028,3.3 -9.199,4.469 -6.342,2.336 -13.037,3.391 -19.691,3.176 -13.309,-0.429 -26.455,-5.936 -36.282,-16.418 z"
         id="path89"
         inkscape:connector-curvature="0"
         style="fill:#8c95c3" /><path
         clip-path="url(#SVGID_2_)"
         d="M 125.479,137.187 C 105.988,116.396 107.041,83.741 127.833,64.25 v 4.496 h 62.239 v 77.142 h 0.04 c -2.921,1.796 -5.978,3.272 -9.122,4.431 -6.289,2.317 -12.93,3.363 -19.529,3.15 -13.199,-0.426 -26.235,-5.887 -35.982,-16.282 z"
         id="path91"
         inkscape:connector-curvature="0"
         style="fill:#8d96c4" /><path
         clip-path="url(#SVGID_2_)"
         d="m 125.794,136.893 c -19.329,-20.618 -18.284,-53 2.333,-72.33 v 4.183 h 61.945 v 73.866 h 4.053 c -1.374,1.049 -2.788,2.019 -4.236,2.909 -2.896,1.781 -5.928,3.245 -9.047,4.395 -6.237,2.298 -12.822,3.335 -19.367,3.124 -13.089,-0.423 -26.017,-5.838 -35.681,-16.147 z"
         id="path93"
         inkscape:connector-curvature="0"
         style="fill:#8e97c4" /><path
         clip-path="url(#SVGID_2_)"
         d="M 126.107,136.599 C 106.94,116.155 107.976,84.044 128.42,64.877 v 3.869 h 61.651 v 73.523 h 3.793 c -1.363,1.041 -2.766,2.002 -4.201,2.885 -2.871,1.767 -5.878,3.219 -8.971,4.357 -6.186,2.279 -12.715,3.308 -19.204,3.098 -12.978,-0.418 -25.798,-5.788 -35.381,-16.01 z"
         id="path95"
         inkscape:connector-curvature="0"
         style="fill:#8f98c5" /><path
         clip-path="url(#SVGID_2_)"
         d="m 126.421,136.305 c -19.004,-20.271 -17.977,-52.109 2.294,-71.114 v 3.555 h 61.357 v 73.182 h 3.531 c -1.352,1.031 -2.742,1.984 -4.166,2.86 -2.848,1.751 -5.828,3.19 -8.894,4.319 -6.132,2.26 -12.606,3.279 -19.041,3.072 -12.868,-0.414 -25.579,-5.739 -35.081,-15.874 z"
         id="path97"
         inkscape:connector-curvature="0"
         style="fill:#9098c5" /><path
         clip-path="url(#SVGID_2_)"
         d="m 126.734,136.011 c -18.841,-20.098 -17.823,-51.665 2.274,-70.506 v 3.241 h 61.063 v 72.84 h 3.271 c -1.34,1.022 -2.719,1.968 -4.13,2.836 -2.823,1.736 -5.779,3.163 -8.819,4.283 -6.08,2.24 -12.498,3.251 -18.878,3.045 -12.757,-0.411 -25.36,-5.69 -34.781,-15.739 z"
         id="path99"
         inkscape:connector-curvature="0"
         style="fill:#9199c6" /><path
         clip-path="url(#SVGID_2_)"
         d="m 127.049,135.717 c -18.68,-19.925 -17.67,-51.219 2.255,-69.898 v 2.928 h 60.769 v 69.226 h 6.874 c -19.925,18.677 -51.219,17.669 -69.898,-2.256 z"
         id="path101"
         inkscape:connector-curvature="0"
         style="fill:#919ac6" /><path
         clip-path="url(#SVGID_2_)"
         d="m 127.362,135.422 c -18.517,-19.751 -17.517,-50.773 2.235,-69.29 v 2.614 h 60.475 v 68.912 h 6.58 c -19.751,18.517 -50.773,17.516 -69.29,-2.236 z"
         id="path103"
         inkscape:connector-curvature="0"
         style="fill:#929bc7" /><path
         clip-path="url(#SVGID_2_)"
         d="M 127.676,135.128 C 109.322,115.55 110.314,84.8 129.892,66.445 v 2.3 h 60.181 v 68.598 h 6.286 c -19.579,18.355 -50.329,17.363 -68.683,-2.215 z"
         id="path105"
         inkscape:connector-curvature="0"
         style="fill:#939cc7" /><path
         clip-path="url(#SVGID_2_)"
         d="m 127.989,134.834 c -18.191,-19.405 -17.208,-49.883 2.196,-68.075 v 1.986 h 59.887 v 68.284 h 5.992 c -19.405,18.194 -49.882,17.21 -68.075,-2.195 z"
         id="path107"
         inkscape:connector-curvature="0"
         style="fill:#949cc8" /><path
         clip-path="url(#SVGID_2_)"
         d="m 128.304,134.54 c -18.03,-19.231 -17.056,-49.438 2.176,-67.467 v 1.673 h 59.593 v 67.971 h 5.698 c -19.232,18.029 -49.438,17.054 -67.467,-2.177 z"
         id="path109"
         inkscape:connector-curvature="0"
         style="fill:#959dc9" /><path
         clip-path="url(#SVGID_2_)"
         d="M 128.617,134.246 C 110.75,115.188 111.716,85.254 130.773,67.387 v 1.359 h 59.299 v 67.657 h 5.404 c -19.058,17.868 -48.992,16.902 -66.859,-2.157 z"
         id="path111"
         inkscape:connector-curvature="0"
         style="fill:#969ec9" /><path
         clip-path="url(#SVGID_2_)"
         d="m 128.931,133.952 c -17.704,-18.885 -16.748,-48.547 2.138,-66.251 v 1.045 h 59.004 v 67.343 h 5.109 c -18.885,17.705 -48.546,16.748 -66.251,-2.137 z"
         id="path113"
         inkscape:connector-curvature="0"
         style="fill:#979fca" /><path
         clip-path="url(#SVGID_2_)"
         d="M 129.244,133.658 C 111.702,114.947 112.65,85.557 131.362,68.015 v 0.731 h 58.554 v -4.797 c 2.519,1.782 4.896,3.844 7.09,6.183 h -6.934 v 65.643 h 4.815 c -18.711,17.543 -48.101,16.594 -65.643,-2.117 z"
         id="path115"
         inkscape:connector-curvature="0"
         style="fill:#98a0ca" /><path
         clip-path="url(#SVGID_2_)"
         d="m 129.559,133.364 c -17.38,-18.539 -16.44,-47.656 2.098,-65.036 v 0.418 h 58.012 v -4.445 c 2.496,1.766 4.852,3.809 7.023,6.125 h -6.619 v 65.036 h 4.521 c -18.538,17.38 -47.656,16.44 -65.035,-2.098 z"
         id="path117"
         inkscape:connector-curvature="0"
         style="fill:#99a0cb" /><path
         clip-path="url(#SVGID_2_)"
         d="M 129.872,133.07 C 112.654,114.705 113.585,85.86 131.95,68.642 v 0.104 h 57.47 v -4.094 c 2.473,1.75 4.807,3.773 6.958,6.068 h -6.306 v 64.428 h 4.228 c -18.365,17.217 -47.211,16.288 -64.428,-2.078 z"
         id="path119"
         inkscape:connector-curvature="0"
         style="fill:#9aa1cb" /><path
         clip-path="url(#SVGID_2_)"
         d="m 130.186,132.776 c -17.055,-18.192 -16.133,-46.766 2.059,-63.82 2.273,-2.132 4.71,-3.983 7.266,-5.554 v 5.345 h 49.662 v -3.743 c 2.449,1.733 4.761,3.737 6.893,6.011 h -5.992 v 63.82 h 3.934 c -18.195,17.054 -46.768,16.133 -63.822,-2.059 z"
         id="path121"
         inkscape:connector-curvature="0"
         style="fill:#9ba2cc" /><path
         clip-path="url(#SVGID_2_)"
         d="m 130.499,132.481 c -16.893,-18.019 -15.979,-46.32 2.039,-63.212 2.253,-2.112 4.666,-3.945 7.197,-5.501 v 4.979 h 49.188 v -3.392 c 2.426,1.717 4.715,3.702 6.827,5.954 h -5.679 v 63.212 h 3.64 c -18.019,16.892 -46.319,15.979 -63.212,-2.04 z"
         id="path123"
         inkscape:connector-curvature="0"
         style="fill:#9ca3cc" /><path
         clip-path="url(#SVGID_2_)"
         d="m 130.812,132.188 c -16.729,-17.846 -15.825,-45.875 2.021,-62.604 2.231,-2.091 4.621,-3.907 7.128,-5.449 v 4.612 h 48.715 v -3.04 c 2.402,1.7 4.67,3.666 6.762,5.896 h -5.365 v 62.604 h 3.345 c -17.846,16.731 -45.875,15.826 -62.606,-2.019 z"
         id="path125"
         inkscape:connector-curvature="0"
         style="fill:#9da4cd" /><path
         clip-path="url(#SVGID_2_)"
         d="m 131.127,131.894 c -16.568,-17.672 -15.673,-45.429 2,-61.997 2.209,-2.071 4.576,-3.869 7.059,-5.396 v 4.245 h 40.746 v -6.947 c 5.209,2.311 10.05,5.68 14.191,10.098 h -5.051 v 61.997 h 3.051 c -17.672,16.567 -45.429,15.671 -61.996,-2 z"
         id="path127"
         inkscape:connector-curvature="0"
         style="fill:#9da5cd" /><path
         clip-path="url(#SVGID_2_)"
         d="M 131.44,131.599 C 115.035,114.1 115.921,86.616 133.42,70.21 c 2.187,-2.05 4.53,-3.831 6.989,-5.342 v 3.878 h 40.348 v -6.554 c 5.157,2.288 9.951,5.625 14.052,9.999 h -4.737 v 61.389 h 2.757 c -17.499,16.404 -44.983,15.518 -61.389,-1.981 z"
         id="path129"
         inkscape:connector-curvature="0"
         style="fill:#9ea5ce" /><path
         clip-path="url(#SVGID_2_)"
         d="m 131.754,131.305 c -16.242,-17.326 -15.364,-44.538 1.961,-60.781 2.166,-2.031 4.486,-3.793 6.92,-5.29 v 3.512 h 39.949 v -6.161 c 5.105,2.265 9.852,5.568 13.912,9.9 h -4.424 v 60.781 h 2.463 c -17.326,16.243 -44.538,15.365 -60.781,-1.961 z"
         id="path131"
         inkscape:connector-curvature="0"
         style="fill:#9fa6ce" /><path
         clip-path="url(#SVGID_2_)"
         d="m 132.067,131.011 c -16.08,-17.153 -15.211,-44.093 1.941,-60.173 4.288,-4.02 9.188,-6.98 14.377,-8.893 v 6.801 h 32.022 v -5.768 c 5.055,2.242 9.754,5.513 13.774,9.801 h -4.11 v 60.173 h 2.169 c -17.151,16.081 -44.092,15.212 -60.173,-1.941 z"
         id="path133"
         inkscape:connector-curvature="0"
         style="fill:#a0a7cf" /><path
         clip-path="url(#SVGID_2_)"
         d="m 132.382,130.717 c -15.918,-16.979 -15.058,-43.647 1.921,-59.565 4.245,-3.979 9.096,-6.91 14.232,-8.803 v 6.397 h 31.698 v -5.375 c 5.004,2.22 9.655,5.457 13.635,9.702 h -3.796 v 59.565 h 1.875 c -16.979,15.919 -43.647,15.058 -59.565,-1.921 z"
         id="path135"
         inkscape:connector-curvature="0"
         style="fill:#a1a8cf" /><path
         clip-path="url(#SVGID_2_)"
         d="m 132.695,130.423 c -15.756,-16.806 -14.904,-43.202 1.902,-58.958 4.201,-3.939 9.002,-6.84 14.086,-8.713 v 5.994 h 31.375 v -4.981 c 4.953,2.197 9.557,5.401 13.496,9.603 h -3.482 v 58.958 h 1.58 c -16.805,15.754 -43.201,14.903 -58.957,-1.903 z"
         id="path137"
         inkscape:connector-curvature="0"
         style="fill:#a2a9d0" /><path
         clip-path="url(#SVGID_2_)"
         d="m 133.009,130.129 c -15.593,-16.633 -14.75,-42.757 1.883,-58.35 4.157,-3.898 8.909,-6.769 13.94,-8.623 v 5.59 h 31.053 v -4.589 c 4.902,2.174 9.459,5.346 13.356,9.504 h -3.169 v 58.35 h 1.286 c -16.631,15.593 -42.756,14.751 -58.349,-1.882 z"
         id="path139"
         inkscape:connector-curvature="0"
         style="fill:#a3aad0" /><path
         clip-path="url(#SVGID_2_)"
         d="m 133.322,129.834 c -15.431,-16.459 -14.597,-42.311 1.863,-57.742 4.115,-3.857 8.816,-6.699 13.796,-8.533 v 5.187 h 30.729 v -4.195 c 4.851,2.151 9.359,5.29 13.217,9.405 h -2.855 v 57.742 h 0.992 c -16.459,15.43 -42.311,14.596 -57.742,-1.864 z"
         id="path141"
         inkscape:connector-curvature="0"
         style="fill:#a4aad1" /><path
         clip-path="url(#SVGID_2_)"
         d="m 133.637,129.541 c -15.269,-16.286 -14.443,-41.866 1.843,-57.134 4.071,-3.817 8.724,-6.628 13.651,-8.443 v 4.783 h 30.404 v -3.802 c 4.8,2.129 9.262,5.234 13.078,9.306 h -2.541 v 57.134 h 0.698 c -16.286,15.267 -41.866,14.441 -57.133,-1.844 z"
         id="path143"
         inkscape:connector-curvature="0"
         style="fill:#a5abd1" /><path
         clip-path="url(#SVGID_2_)"
         d="m 133.95,129.247 c -15.105,-16.113 -14.289,-41.421 1.823,-56.526 4.028,-3.777 8.631,-6.558 13.506,-8.354 v 4.38 h 15.135 v -6.821 c 10.229,0.33 20.333,4.562 27.886,12.619 h -2.228 v 56.526 h 0.404 c -16.113,15.105 -41.42,14.288 -56.526,-1.824 z"
         id="path145"
         inkscape:connector-curvature="0"
         style="fill:#a6acd2" /><path
         clip-path="url(#SVGID_2_)"
         d="m 134.264,128.952 c -14.943,-15.939 -14.136,-40.975 1.804,-55.918 7.97,-7.472 18.214,-11.005 28.333,-10.679 10.119,0.327 20.114,4.514 27.586,12.483 h -1.914 v 55.918 h 0.11 c -15.94,14.943 -40.976,14.137 -55.919,-1.804 z"
         id="path147"
         inkscape:connector-curvature="0"
         style="fill:#a7add2" /><path
         clip-path="url(#SVGID_2_)"
         d="m 134.577,128.658 c -14.78,-15.766 -13.981,-40.53 1.784,-55.311 7.883,-7.391 18.016,-10.886 28.025,-10.563 10.01,0.323 19.896,4.464 27.286,12.348 h -1.601 v 49.336 h 5.025 c -1.502,2.123 -3.238,4.126 -5.209,5.974 -15.765,14.782 -40.529,13.983 -55.31,-1.784 z"
         id="path149"
         inkscape:connector-curvature="0"
         style="fill:#a8aed3" /><path
         clip-path="url(#SVGID_2_)"
         d="m 134.892,128.364 c -14.619,-15.593 -13.829,-40.084 1.765,-54.703 7.797,-7.31 17.817,-10.767 27.717,-10.447 9.898,0.32 19.676,4.416 26.985,12.212 h -1.286 v 48.795 h 4.674 c -1.485,2.099 -3.203,4.081 -5.152,5.908 -15.594,14.619 -40.085,13.828 -54.703,-1.765 z"
         id="path151"
         inkscape:connector-curvature="0"
         style="fill:#a9afd3" /><path
         clip-path="url(#SVGID_2_)"
         d="m 135.205,128.07 c -14.456,-15.419 -13.675,-39.639 1.745,-54.095 7.71,-7.228 17.62,-10.647 27.409,-10.331 9.789,0.316 19.457,4.366 26.686,12.076 h -0.973 v 48.252 h 4.322 c -1.469,2.076 -3.168,4.035 -5.095,5.842 -15.419,14.457 -39.638,13.676 -54.094,-1.744 z"
         id="path153"
         inkscape:connector-curvature="0"
         style="fill:#aaafd4" /><path
         clip-path="url(#SVGID_2_)"
         d="m 135.519,127.776 c -14.294,-15.247 -13.521,-39.194 1.726,-53.487 7.623,-7.147 17.422,-10.527 27.101,-10.215 9.679,0.312 19.239,4.317 26.387,11.94 h -0.659 v 47.71 h 3.972 c -1.452,2.053 -3.132,3.99 -5.038,5.777 -15.248,14.294 -39.196,13.521 -53.489,-1.725 z"
         id="path155"
         inkscape:connector-curvature="0"
         style="fill:#abb0d4" /><path
         clip-path="url(#SVGID_2_)"
         d="m 135.832,127.482 c -14.131,-15.073 -13.367,-38.749 1.706,-52.879 7.536,-7.065 17.224,-10.407 26.793,-10.099 9.569,0.308 19.021,4.268 26.087,11.804 h -0.346 v 47.168 h 3.619 c -1.436,2.029 -3.096,3.944 -4.979,5.711 -15.073,14.131 -38.748,13.368 -52.88,-1.705 z"
         id="path157"
         inkscape:connector-curvature="0"
         style="fill:#acb1d5" /><path
         clip-path="url(#SVGID_2_)"
         d="m 136.146,127.188 c -13.97,-14.9 -13.214,-38.303 1.686,-52.271 7.45,-6.984 17.025,-10.288 26.484,-9.983 9.46,0.305 18.803,4.219 25.787,11.669 h -0.031 v 40.306 h 6.859 c -1.948,4.391 -4.789,8.473 -8.514,11.965 -14.899,13.969 -38.302,13.214 -52.271,-1.686 z"
         id="path159"
         inkscape:connector-curvature="0"
         style="fill:#adb2d5" /><path
         clip-path="url(#SVGID_2_)"
         d="m 136.46,126.894 c -13.807,-14.727 -13.061,-37.857 1.666,-51.664 7.364,-6.903 16.829,-10.168 26.178,-9.867 9.349,0.301 18.583,4.17 25.486,11.533 1.726,1.841 3.225,3.813 4.497,5.882 h -4.215 v 33.956 h 6.467 c -1.926,4.34 -4.733,8.374 -8.415,11.826 -14.728,13.807 -37.858,13.061 -51.664,-1.666 z"
         id="path161"
         inkscape:connector-curvature="0"
         style="fill:#aeb3d6" /><path
         clip-path="url(#SVGID_2_)"
         d="m 136.773,126.6 c -13.644,-14.554 -12.906,-37.412 1.647,-51.056 14.553,-13.644 37.412,-12.907 51.056,1.647 3.411,3.639 5.924,7.796 7.546,12.199 h -6.95 v 27.17 h 6.072 c -1.902,4.289 -4.678,8.276 -8.315,11.687 -14.553,13.644 -37.412,12.906 -51.056,-1.647 z"
         id="path163"
         inkscape:connector-curvature="0"
         style="fill:#afb4d6" /><path
         clip-path="url(#SVGID_2_)"
         d="m 137.087,126.306 c -13.481,-14.38 -12.753,-36.967 1.628,-50.449 14.38,-13.481 36.967,-12.752 50.448,1.627 3.37,3.595 5.853,7.703 7.455,12.054 h -6.546 v 26.847 h 5.681 c -1.88,4.238 -4.622,8.178 -8.218,11.548 -14.38,13.482 -36.967,12.753 -50.448,-1.627 z"
         id="path165"
         inkscape:connector-curvature="0"
         style="fill:#b0b5d7" /><path
         clip-path="url(#SVGID_2_)"
         d="m 137.4,126.011 c -13.318,-14.207 -12.599,-36.521 1.608,-49.84 14.207,-13.319 36.521,-12.599 49.841,1.608 3.33,3.552 5.782,7.61 7.365,11.908 h -6.143 v 26.524 h 5.287 c -1.857,4.187 -4.566,8.079 -8.118,11.408 -14.206,13.319 -36.52,12.599 -49.84,-1.608 z"
         id="path167"
         inkscape:connector-curvature="0"
         style="fill:#b1b5d7" /><path
         clip-path="url(#SVGID_2_)"
         d="m 137.715,125.717 c -13.157,-14.034 -12.446,-36.076 1.588,-49.233 14.034,-13.156 36.076,-12.445 49.232,1.588 3.289,3.508 5.711,7.518 7.275,11.763 h -5.738 v 26.2 h 4.895 c -1.835,4.136 -4.511,7.98 -8.02,11.27 -14.034,13.157 -36.076,12.446 -49.232,-1.588 z"
         id="path169"
         inkscape:connector-curvature="0"
         style="fill:#b2b6d8" /><path
         clip-path="url(#SVGID_2_)"
         d="m 138.028,125.423 c -12.994,-13.861 -12.292,-35.631 1.568,-48.625 13.86,-12.994 35.631,-12.292 48.625,1.568 3.249,3.465 5.642,7.425 7.187,11.618 h -5.336 v 25.877 h 4.501 c -1.812,4.085 -4.454,7.882 -7.92,11.13 -13.86,12.995 -35.631,12.293 -48.625,-1.568 z"
         id="path171"
         inkscape:connector-curvature="0"
         style="fill:#b3b7d8" /><path
         clip-path="url(#SVGID_2_)"
         d="m 138.342,125.129 c -12.832,-13.687 -12.138,-35.185 1.549,-48.017 13.688,-12.832 35.186,-12.138 48.018,1.549 3.208,3.422 5.57,7.332 7.096,11.473 h -4.932 v 25.553 h 4.107 c -1.789,4.034 -4.398,7.784 -7.82,10.992 -13.688,12.831 -35.186,12.137 -48.018,-1.55 z"
         id="path173"
         inkscape:connector-curvature="0"
         style="fill:#b4b8d9" /><path
         clip-path="url(#SVGID_2_)"
         d="m 138.655,124.835 c -12.669,-13.514 -11.984,-34.74 1.53,-47.409 13.514,-12.669 34.739,-11.985 47.409,1.529 6.335,6.757 9.331,15.442 9.054,24.021 -0.276,8.579 -3.826,17.053 -10.584,23.388 -13.513,12.67 -34.739,11.985 -47.409,-1.529 z"
         id="path175"
         inkscape:connector-curvature="0"
         style="fill:#b4b9da" /><path
         clip-path="url(#SVGID_2_)"
         d="m 138.97,124.541 c -12.507,-13.341 -11.831,-34.294 1.51,-46.802 13.341,-12.507 34.294,-11.831 46.801,1.51 6.253,6.67 9.211,15.244 8.938,23.713 -0.273,8.469 -3.777,16.834 -10.448,23.088 -13.341,12.508 -34.294,11.831 -46.801,-1.509 z"
         id="path177"
         inkscape:connector-curvature="0"
         style="fill:#b5bada" /><path
         clip-path="url(#SVGID_2_)"
         d="m 139.283,124.247 c -12.345,-13.167 -11.678,-33.849 1.49,-46.193 13.167,-12.345 33.849,-11.677 46.193,1.49 6.172,6.583 9.092,15.046 8.822,23.405 -0.27,8.359 -3.729,16.616 -10.312,22.788 -13.166,12.345 -33.848,11.677 -46.193,-1.49 z"
         id="path179"
         inkscape:connector-curvature="0"
         style="fill:#b6bbdb" /><path
         clip-path="url(#SVGID_2_)"
         d="m 139.597,123.953 c -12.182,-12.994 -11.523,-33.404 1.471,-45.586 12.994,-12.182 33.403,-11.523 45.586,1.471 6.091,6.497 8.972,14.848 8.706,23.097 -0.267,8.25 -3.68,16.397 -10.177,22.489 -12.995,12.181 -33.404,11.523 -45.586,-1.471 z"
         id="path181"
         inkscape:connector-curvature="0"
         style="fill:#b7bcdb" /><path
         clip-path="url(#SVGID_2_)"
         d="m 139.91,123.659 c -12.02,-12.821 -11.37,-32.958 1.451,-44.978 12.821,-12.02 32.959,-11.37 44.979,1.451 6.01,6.411 8.853,14.65 8.59,22.79 -0.263,8.14 -3.631,16.179 -10.041,22.188 -12.822,12.019 -32.959,11.369 -44.979,-1.451 z"
         id="path183"
         inkscape:connector-curvature="0"
         style="fill:#b8bcdc" /><path
         clip-path="url(#SVGID_2_)"
         d="m 140.225,123.364 c -11.857,-12.647 -11.217,-32.513 1.431,-44.37 12.648,-11.857 32.514,-11.216 44.37,1.432 5.929,6.324 8.732,14.452 8.474,22.481 -0.258,8.029 -3.581,15.96 -9.904,21.889 -12.65,11.857 -32.515,11.216 -44.371,-1.432 z"
         id="path185"
         inkscape:connector-curvature="0"
         style="fill:#b9bddc" /><path
         clip-path="url(#SVGID_2_)"
         d="m 140.538,123.07 c -11.695,-12.475 -11.062,-32.067 1.412,-43.762 12.474,-11.695 32.067,-11.063 43.762,1.412 5.848,6.237 8.613,14.254 8.358,22.173 -0.256,7.919 -3.533,15.742 -9.771,21.589 -12.473,11.695 -32.067,11.063 -43.761,-1.412 z"
         id="path187"
         inkscape:connector-curvature="0"
         style="fill:#babedd" /><circle
         clip-path="url(#SVGID_2_)"
         cx="163.125"
         cy="101.895"
         r="30.531"
         id="circle189"
         sodipodi:cx="163.125"
         sodipodi:cy="101.895"
         sodipodi:rx="30.531"
         sodipodi:ry="30.531"
         style="fill:#bbbfdd"
         d="m 193.656,101.895 c 0,16.8618 -13.66919,30.531 -30.531,30.531 -16.86181,0 -30.531,-13.6692 -30.531,-30.531 0,-16.861809 13.66919,-30.531003 30.531,-30.531003 16.86181,0 30.531,13.669194 30.531,30.531003 z" /><circle
         clip-path="url(#SVGID_2_)"
         cx="163.125"
         cy="101.895"
         r="30.101"
         id="circle191"
         sodipodi:cx="163.125"
         sodipodi:cy="101.895"
         sodipodi:rx="30.101"
         sodipodi:ry="30.101"
         style="fill:#bcc0de"
         d="m 193.226,101.895 c 0,16.62432 -13.47668,30.101 -30.101,30.101 -16.62432,0 -30.101,-13.47668 -30.101,-30.101 0,-16.624327 13.47668,-30.101003 30.101,-30.101003 16.62432,0 30.101,13.476676 30.101,30.101003 z" /><circle
         clip-path="url(#SVGID_2_)"
         cx="163.125"
         cy="101.895"
         r="29.67"
         id="circle193"
         sodipodi:cx="163.125"
         sodipodi:cy="101.895"
         sodipodi:rx="29.67"
         sodipodi:ry="29.67"
         style="fill:#bdc1de"
         d="m 192.795,101.895 c 0,16.38629 -13.28371,29.67 -29.67,29.67 -16.38629,0 -29.67,-13.28371 -29.67,-29.67 0,-16.386292 13.28371,-29.670003 29.67,-29.670003 16.38629,0 29.67,13.283711 29.67,29.670003 z" /><circle
         clip-path="url(#SVGID_2_)"
         cx="163.125"
         cy="101.895"
         r="29.240999"
         id="circle195"
         sodipodi:cx="163.125"
         sodipodi:cy="101.895"
         sodipodi:rx="29.240999"
         sodipodi:ry="29.240999"
         style="fill:#bec2df"
         d="m 192.366,101.895 c 0,16.14935 -13.09164,29.241 -29.241,29.241 -16.14936,0 -29.241,-13.09165 -29.241,-29.241 0,-16.149361 13.09164,-29.241003 29.241,-29.241003 16.14936,0 29.241,13.091642 29.241,29.241003 z" /><circle
         clip-path="url(#SVGID_2_)"
         cx="163.125"
         cy="101.895"
         r="28.811001"
         id="circle197"
         sodipodi:cx="163.125"
         sodipodi:cy="101.895"
         sodipodi:rx="28.811001"
         sodipodi:ry="28.811001"
         style="fill:#bfc3df"
         d="m 191.936,101.895 c 0,15.91187 -12.89912,28.811 -28.811,28.811 -15.91188,0 -28.811,-12.89913 -28.811,-28.811 0,-15.91188 12.89912,-28.811004 28.811,-28.811004 15.91188,0 28.811,12.899124 28.811,28.811004 z" /><circle
         clip-path="url(#SVGID_2_)"
         cx="163.125"
         cy="101.895"
         r="28.381001"
         id="circle199"
         sodipodi:cx="163.125"
         sodipodi:cy="101.895"
         sodipodi:rx="28.381001"
         sodipodi:ry="28.381001"
         style="fill:#c0c3e0"
         d="m 191.506,101.895 c 0,15.67439 -12.70661,28.381 -28.381,28.381 -15.67439,0 -28.381,-12.70661 -28.381,-28.381 0,-15.674397 12.70661,-28.381004 28.381,-28.381004 15.67439,0 28.381,12.706607 28.381,28.381004 z" /><circle
         clip-path="url(#SVGID_2_)"
         cx="163.125"
         cy="101.895"
         r="27.950001"
         id="circle201"
         sodipodi:cx="163.125"
         sodipodi:cy="101.895"
         sodipodi:rx="27.950001"
         sodipodi:ry="27.950001"
         style="fill:#c1c4e0"
         d="m 191.075,101.895 c 0,15.43636 -12.51364,27.95 -27.95,27.95 -15.43636,0 -27.95,-12.51364 -27.95,-27.95 0,-15.436363 12.51364,-27.950004 27.95,-27.950004 15.43636,0 27.95,12.513641 27.95,27.950004 z" /><circle
         clip-path="url(#SVGID_2_)"
         cx="163.125"
         cy="101.895"
         r="27.52"
         id="circle203"
         sodipodi:cx="163.125"
         sodipodi:cy="101.895"
         sodipodi:rx="27.52"
         sodipodi:ry="27.52"
         style="fill:#c2c5e1"
         d="m 190.645,101.895 c 0,15.19887 -12.32112,27.52 -27.52,27.52 -15.19888,0 -27.52,-12.32113 -27.52,-27.52 0,-15.19888 12.32112,-27.520004 27.52,-27.520004 15.19888,0 27.52,12.321124 27.52,27.520004 z" /><circle
         clip-path="url(#SVGID_2_)"
         cx="163.125"
         cy="101.895"
         r="27.091"
         id="circle205"
         sodipodi:cx="163.125"
         sodipodi:cy="101.895"
         sodipodi:rx="27.091"
         sodipodi:ry="27.091"
         style="fill:#c3c6e1"
         d="m 190.216,101.895 c 0,14.96194 -12.12905,27.091 -27.091,27.091 -14.96195,0 -27.091,-12.12906 -27.091,-27.091 0,-14.961949 12.12905,-27.091003 27.091,-27.091003 14.96195,0 27.091,12.129054 27.091,27.091003 z" /><circle
         clip-path="url(#SVGID_2_)"
         cx="163.125"
         cy="101.895"
         r="26.660999"
         id="circle207"
         sodipodi:cx="163.125"
         sodipodi:cy="101.895"
         sodipodi:rx="26.660999"
         sodipodi:ry="26.660999"
         style="fill:#c4c7e2"
         d="m 189.786,101.895 c 0,14.72446 -11.93654,26.661 -26.661,26.661 -14.72446,0 -26.661,-11.93654 -26.661,-26.661 0,-14.724467 11.93654,-26.661003 26.661,-26.661003 14.72446,0 26.661,11.936536 26.661,26.661003 z" /><circle
         clip-path="url(#SVGID_2_)"
         cx="163.125"
         cy="101.895"
         r="26.231001"
         id="circle209"
         sodipodi:cx="163.125"
         sodipodi:cy="101.895"
         sodipodi:rx="26.231001"
         sodipodi:ry="26.231001"
         style="fill:#c5c8e2"
         d="m 189.356,101.895 c 0,14.48698 -11.74402,26.231 -26.231,26.231 -14.48698,0 -26.231,-11.74402 -26.231,-26.231 0,-14.486985 11.74402,-26.231004 26.231,-26.231004 14.48698,0 26.231,11.744019 26.231,26.231004 z" /><circle
         clip-path="url(#SVGID_2_)"
         cx="163.125"
         cy="101.895"
         r="25.799999"
         id="circle211"
         sodipodi:cx="163.125"
         sodipodi:cy="101.895"
         sodipodi:rx="25.799999"
         sodipodi:ry="25.799999"
         style="fill:#c6c9e3"
         d="m 188.925,101.895 c 0,14.24894 -11.55105,25.8 -25.8,25.8 -14.24895,0 -25.8,-11.55106 -25.8,-25.8 0,-14.248949 11.55105,-25.800003 25.8,-25.800003 14.24895,0 25.8,11.551054 25.8,25.800003 z" /><circle
         clip-path="url(#SVGID_2_)"
         cx="163.125"
         cy="101.895"
         r="25.371"
         id="circle213"
         sodipodi:cx="163.125"
         sodipodi:cy="101.895"
         sodipodi:rx="25.371"
         sodipodi:ry="25.371"
         style="fill:#c6cae3"
         d="m 188.496,101.895 c 0,14.01201 -11.35898,25.371 -25.371,25.371 -14.01202,0 -25.371,-11.35899 -25.371,-25.371 0,-14.01202 11.35898,-25.371004 25.371,-25.371004 14.01202,0 25.371,11.358984 25.371,25.371004 z" /><circle
         clip-path="url(#SVGID_2_)"
         cx="163.125"
         cy="101.895"
         r="24.941"
         id="circle215"
         sodipodi:cx="163.125"
         sodipodi:cy="101.895"
         sodipodi:rx="24.941"
         sodipodi:ry="24.941"
         style="fill:#c7cae4"
         d="m 188.066,101.895 c 0,13.77453 -11.16647,24.941 -24.941,24.941 -13.77453,0 -24.941,-11.16647 -24.941,-24.941 0,-13.774537 11.16647,-24.941003 24.941,-24.941003 13.77453,0 24.941,11.166466 24.941,24.941003 z" /><circle
         clip-path="url(#SVGID_2_)"
         cx="163.125"
         cy="101.895"
         r="24.511"
         id="circle217"
         sodipodi:cx="163.125"
         sodipodi:cy="101.895"
         sodipodi:rx="24.511"
         sodipodi:ry="24.511"
         style="fill:#c8cbe4"
         d="m 187.636,101.895 c 0,13.53705 -10.97395,24.511 -24.511,24.511 -13.53705,0 -24.511,-10.97395 -24.511,-24.511 0,-13.537055 10.97395,-24.511003 24.511,-24.511003 13.53705,0 24.511,10.973948 24.511,24.511003 z" /><circle
         clip-path="url(#SVGID_2_)"
         cx="163.125"
         cy="101.895"
         r="24.08"
         id="circle219"
         sodipodi:cx="163.125"
         sodipodi:cy="101.895"
         sodipodi:rx="24.08"
         sodipodi:ry="24.08"
         style="fill:#c9cce5"
         d="m 187.205,101.895 c 0,13.29901 -10.78098,24.08 -24.08,24.08 -13.29902,0 -24.08,-10.78099 -24.08,-24.08 0,-13.29902 10.78098,-24.080003 24.08,-24.080003 13.29902,0 24.08,10.780983 24.08,24.080003 z" /><circle
         clip-path="url(#SVGID_2_)"
         cx="163.125"
         cy="101.895"
         r="23.650999"
         id="circle221"
         sodipodi:cx="163.125"
         sodipodi:cy="101.895"
         sodipodi:rx="23.650999"
         sodipodi:ry="23.650999"
         style="fill:#cacde5"
         d="m 186.776,101.895 c 0,13.06208 -10.58891,23.651 -23.651,23.651 -13.06209,0 -23.651,-10.58892 -23.651,-23.651 0,-13.062089 10.58891,-23.651002 23.651,-23.651002 13.06209,0 23.651,10.588913 23.651,23.651002 z" /><circle
         clip-path="url(#SVGID_2_)"
         cx="163.125"
         cy="101.895"
         r="23.221001"
         id="circle223"
         sodipodi:cx="163.125"
         sodipodi:cy="101.895"
         sodipodi:rx="23.221001"
         sodipodi:ry="23.221001"
         style="fill:#cbcee6"
         d="m 186.346,101.895 c 0,12.8246 -10.3964,23.221 -23.221,23.221 -12.8246,0 -23.221,-10.3964 -23.221,-23.221 0,-12.824608 10.3964,-23.221004 23.221,-23.221004 12.8246,0 23.221,10.396396 23.221,23.221004 z" /><circle
         clip-path="url(#SVGID_2_)"
         cx="163.125"
         cy="101.895"
         r="22.791"
         id="circle225"
         sodipodi:cx="163.125"
         sodipodi:cy="101.895"
         sodipodi:rx="22.791"
         sodipodi:ry="22.791"
         style="fill:#cccfe6"
         d="m 185.916,101.895 c 0,12.58712 -10.20388,22.791 -22.791,22.791 -12.58712,0 -22.791,-10.20388 -22.791,-22.791 0,-12.587125 10.20388,-22.791004 22.791,-22.791004 12.58712,0 22.791,10.203879 22.791,22.791004 z" /><circle
         clip-path="url(#SVGID_2_)"
         cx="163.125"
         cy="101.895"
         r="22.360001"
         id="circle227"
         sodipodi:cx="163.125"
         sodipodi:cy="101.895"
         sodipodi:rx="22.360001"
         sodipodi:ry="22.360001"
         style="fill:#cdd0e7"
         d="m 185.485,101.895 c 0,12.34908 -10.01091,22.36 -22.36,22.36 -12.34909,0 -22.36,-10.01092 -22.36,-22.36 0,-12.349091 10.01091,-22.360004 22.36,-22.360004 12.34909,0 22.36,10.010913 22.36,22.360004 z" /><circle
         clip-path="url(#SVGID_2_)"
         cx="163.125"
         cy="101.895"
         r="21.93"
         id="circle229"
         sodipodi:cx="163.125"
         sodipodi:cy="101.895"
         sodipodi:rx="21.93"
         sodipodi:ry="21.93"
         style="fill:#ced1e7"
         d="m 185.055,101.895 c 0,12.1116 -9.8184,21.93 -21.93,21.93 -12.1116,0 -21.93,-9.8184 -21.93,-21.93 0,-12.111608 9.8184,-21.930004 21.93,-21.930004 12.1116,0 21.93,9.818396 21.93,21.930004 z" /><circle
         clip-path="url(#SVGID_2_)"
         cx="163.125"
         cy="101.895"
         r="21.500999"
         id="circle231"
         sodipodi:cx="163.125"
         sodipodi:cy="101.895"
         sodipodi:rx="21.500999"
         sodipodi:ry="21.500999"
         style="fill:#cfd1e8"
         d="m 184.626,101.895 c 0,11.87467 -9.62633,21.501 -21.501,21.501 -11.87467,0 -21.501,-9.62633 -21.501,-21.501 0,-11.874677 9.62633,-21.501003 21.501,-21.501003 11.87467,0 21.501,9.626326 21.501,21.501003 z" /><circle
         clip-path="url(#SVGID_2_)"
         cx="163.125"
         cy="101.895"
         r="21.070999"
         id="circle233"
         sodipodi:cx="163.125"
         sodipodi:cy="101.895"
         sodipodi:rx="21.070999"
         sodipodi:ry="21.070999"
         style="fill:#d0d2e8"
         d="m 184.196,101.895 c 0,11.63719 -9.43381,21.071 -21.071,21.071 -11.63719,0 -21.071,-9.43381 -21.071,-21.071 0,-11.637195 9.43381,-21.071003 21.071,-21.071003 11.63719,0 21.071,9.433808 21.071,21.071003 z" /><circle
         clip-path="url(#SVGID_2_)"
         cx="163.125"
         cy="101.895"
         r="20.639999"
         id="circle235"
         sodipodi:cx="163.125"
         sodipodi:cy="101.895"
         sodipodi:rx="20.639999"
         sodipodi:ry="20.639999"
         style="fill:#d1d3e9"
         d="m 183.765,101.895 c 0,11.39915 -9.24084,20.64 -20.64,20.64 -11.39916,0 -20.64,-9.24085 -20.64,-20.64 0,-11.39916 9.24084,-20.640003 20.64,-20.640003 11.39916,0 20.64,9.240843 20.64,20.640003 z" /><circle
         clip-path="url(#SVGID_2_)"
         cx="163.125"
         cy="101.895"
         r="20.209999"
         id="circle237"
         sodipodi:cx="163.125"
         sodipodi:cy="101.895"
         sodipodi:rx="20.209999"
         sodipodi:ry="20.209999"
         style="fill:#d2d4e9"
         d="m 183.335,101.895 c 0,11.16167 -9.04833,20.21 -20.21,20.21 -11.16167,0 -20.21,-9.04833 -20.21,-20.21 0,-11.161678 9.04833,-20.210002 20.21,-20.210002 11.16167,0 20.21,9.048324 20.21,20.210002 z" /><circle
         clip-path="url(#SVGID_2_)"
         cx="163.125"
         cy="101.895"
         r="19.781"
         id="circle239"
         sodipodi:cx="163.125"
         sodipodi:cy="101.895"
         sodipodi:rx="19.781"
         sodipodi:ry="19.781"
         style="fill:#d3d5ea"
         d="m 182.906,101.895 c 0,10.92474 -8.85626,19.781 -19.781,19.781 -10.92474,0 -19.781,-8.85626 -19.781,-19.781 0,-10.924748 8.85626,-19.781003 19.781,-19.781003 10.92474,0 19.781,8.856255 19.781,19.781003 z" /><circle
         clip-path="url(#SVGID_2_)"
         cx="163.125"
         cy="101.895"
         r="19.351"
         id="circle241"
         sodipodi:cx="163.125"
         sodipodi:cy="101.895"
         sodipodi:rx="19.351"
         sodipodi:ry="19.351"
         style="fill:#d4d6ea"
         d="m 182.476,101.895 c 0,10.68726 -8.66374,19.351 -19.351,19.351 -10.68726,0 -19.351,-8.66374 -19.351,-19.351 0,-10.687265 8.66374,-19.351003 19.351,-19.351003 10.68726,0 19.351,8.663738 19.351,19.351003 z" /><circle
         clip-path="url(#SVGID_2_)"
         cx="163.125"
         cy="101.895"
         r="18.92"
         id="circle243"
         sodipodi:cx="163.125"
         sodipodi:cy="101.895"
         sodipodi:rx="18.92"
         sodipodi:ry="18.92"
         style="fill:#d5d7eb"
         d="m 182.045,101.895 c 0,10.44922 -8.47077,18.92 -18.92,18.92 -10.44923,0 -18.92,-8.47078 -18.92,-18.92 0,-10.449231 8.47077,-18.920003 18.92,-18.920003 10.44923,0 18.92,8.470772 18.92,18.920003 z" /><circle
         clip-path="url(#SVGID_2_)"
         cx="163.125"
         cy="101.895"
         r="18.49"
         id="circle245"
         sodipodi:cx="163.125"
         sodipodi:cy="101.895"
         sodipodi:rx="18.49"
         sodipodi:ry="18.49"
         style="fill:#d6d8eb"
         d="m 181.615,101.895 c 0,10.21174 -8.27826,18.49 -18.49,18.49 -10.21174,0 -18.49,-8.27826 -18.49,-18.49 0,-10.211748 8.27826,-18.490003 18.49,-18.490003 10.21174,0 18.49,8.278255 18.49,18.490003 z" /><circle
         clip-path="url(#SVGID_2_)"
         cx="163.125"
         cy="101.895"
         r="18.059999"
         id="circle247"
         sodipodi:cx="163.125"
         sodipodi:cy="101.895"
         sodipodi:rx="18.059999"
         sodipodi:ry="18.059999"
         style="fill:#d7d9ec"
         d="m 181.185,101.895 c 0,9.97426 -8.08574,18.06 -18.06,18.06 -9.97426,0 -18.06,-8.08574 -18.06,-18.06 0,-9.974266 8.08574,-18.060003 18.06,-18.060003 9.97426,0 18.06,8.085737 18.06,18.060003 z" /><circle
         clip-path="url(#SVGID_2_)"
         cx="163.125"
         cy="101.895"
         r="17.631001"
         id="circle249"
         sodipodi:cx="163.125"
         sodipodi:cy="101.895"
         sodipodi:rx="17.631001"
         sodipodi:ry="17.631001"
         style="fill:#d8daec"
         d="m 180.756,101.895 c 0,9.73733 -7.89367,17.631 -17.631,17.631 -9.73733,0 -17.631,-7.89367 -17.631,-17.631 0,-9.737336 7.89367,-17.631004 17.631,-17.631004 9.73733,0 17.631,7.893668 17.631,17.631004 z" /><circle
         clip-path="url(#SVGID_2_)"
         cx="163.125"
         cy="101.895"
         r="17.201"
         id="circle251"
         sodipodi:cx="163.125"
         sodipodi:cy="101.895"
         sodipodi:rx="17.201"
         sodipodi:ry="17.201"
         style="fill:#d9daed"
         d="m 180.326,101.895 c 0,9.49985 -7.70115,17.201 -17.201,17.201 -9.49985,0 -17.201,-7.70115 -17.201,-17.201 0,-9.499853 7.70115,-17.201004 17.201,-17.201004 9.49985,0 17.201,7.701151 17.201,17.201004 z" /><circle
         clip-path="url(#SVGID_2_)"
         cx="163.125"
         cy="101.895"
         r="16.77"
         id="circle253"
         sodipodi:cx="163.125"
         sodipodi:cy="101.895"
         sodipodi:rx="16.77"
         sodipodi:ry="16.77"
         style="fill:#dadbed"
         d="m 179.895,101.895 c 0,9.26181 -7.50818,16.77 -16.77,16.77 -9.26182,0 -16.77,-7.50819 -16.77,-16.77 0,-9.261819 7.50818,-16.770004 16.77,-16.770004 9.26182,0 16.77,7.508185 16.77,16.770004 z" /><circle
         clip-path="url(#SVGID_2_)"
         cx="163.125"
         cy="101.895"
         r="16.34"
         id="circle255"
         sodipodi:cx="163.125"
         sodipodi:cy="101.895"
         sodipodi:rx="16.34"
         sodipodi:ry="16.34"
         style="fill:#dbdcee"
         d="m 179.465,101.895 c 0,9.02433 -7.31567,16.34 -16.34,16.34 -9.02433,0 -16.34,-7.31567 -16.34,-16.34 0,-9.024336 7.31567,-16.340004 16.34,-16.340004 9.02433,0 16.34,7.315668 16.34,16.340004 z" /><circle
         clip-path="url(#SVGID_2_)"
         cx="163.125"
         cy="101.895"
         r="15.911"
         id="circle257"
         sodipodi:cx="163.125"
         sodipodi:cy="101.895"
         sodipodi:rx="15.911"
         sodipodi:ry="15.911"
         style="fill:#dcddee"
         d="m 179.036,101.895 c 0,8.7874 -7.1236,15.911 -15.911,15.911 -8.7874,0 -15.911,-7.1236 -15.911,-15.911 0,-8.787406 7.1236,-15.911004 15.911,-15.911004 8.7874,0 15.911,7.123598 15.911,15.911004 z" /><circle
         clip-path="url(#SVGID_2_)"
         cx="163.125"
         cy="101.895"
         r="15.481"
         id="circle259"
         sodipodi:cx="163.125"
         sodipodi:cy="101.895"
         sodipodi:rx="15.481"
         sodipodi:ry="15.481"
         style="fill:#dcdeef"
         d="m 178.606,101.895 c 0,8.54992 -6.93108,15.481 -15.481,15.481 -8.54992,0 -15.481,-6.93108 -15.481,-15.481 0,-8.549924 6.93108,-15.481003 15.481,-15.481003 8.54992,0 15.481,6.931079 15.481,15.481003 z" /><circle
         clip-path="url(#SVGID_2_)"
         cx="163.125"
         cy="101.895"
         r="15.05"
         id="circle261"
         sodipodi:cx="163.125"
         sodipodi:cy="101.895"
         sodipodi:rx="15.05"
         sodipodi:ry="15.05"
         style="fill:#dddfef"
         d="m 178.175,101.895 c 0,8.31188 -6.73811,15.05 -15.05,15.05 -8.31189,0 -15.05,-6.73812 -15.05,-15.05 0,-8.311889 6.73811,-15.050004 15.05,-15.050004 8.31189,0 15.05,6.738115 15.05,15.050004 z" /><circle
         clip-path="url(#SVGID_2_)"
         cx="163.125"
         cy="101.895"
         r="14.62"
         id="circle263"
         sodipodi:cx="163.125"
         sodipodi:cy="101.895"
         sodipodi:rx="14.62"
         sodipodi:ry="14.62"
         style="fill:#dee0f0"
         d="m 177.745,101.895 c 0,8.0744 -6.5456,14.62 -14.62,14.62 -8.0744,0 -14.62,-6.5456 -14.62,-14.62 0,-8.074406 6.5456,-14.620003 14.62,-14.620003 8.0744,0 14.62,6.545597 14.62,14.620003 z" /><circle
         clip-path="url(#SVGID_2_)"
         cx="163.125"
         cy="101.895"
         r="14.191"
         id="circle265"
         sodipodi:cx="163.125"
         sodipodi:cy="101.895"
         sodipodi:rx="14.191"
         sodipodi:ry="14.191"
         style="fill:#dfe1f0"
         d="m 177.316,101.895 c 0,7.83747 -6.35353,14.191 -14.191,14.191 -7.83747,0 -14.191,-6.35353 -14.191,-14.191 0,-7.837476 6.35353,-14.191003 14.191,-14.191003 7.83747,0 14.191,6.353527 14.191,14.191003 z" /><circle
         clip-path="url(#SVGID_2_)"
         cx="163.125"
         cy="101.895"
         r="13.761"
         id="circle267"
         sodipodi:cx="163.125"
         sodipodi:cy="101.895"
         sodipodi:rx="13.761"
         sodipodi:ry="13.761"
         style="fill:#e0e2f1"
         d="m 176.886,101.895 c 0,7.59999 -6.16101,13.761 -13.761,13.761 -7.59999,0 -13.761,-6.16101 -13.761,-13.761 0,-7.599994 6.16101,-13.761003 13.761,-13.761003 7.59999,0 13.761,6.161009 13.761,13.761003 z" /><circle
         clip-path="url(#SVGID_2_)"
         cx="163.125"
         cy="101.895"
         r="13.33"
         id="circle269"
         sodipodi:cx="163.125"
         sodipodi:cy="101.895"
         sodipodi:rx="13.33"
         sodipodi:ry="13.33"
         style="fill:#e1e3f1"
         d="m 176.455,101.895 c 0,7.36195 -5.96804,13.33 -13.33,13.33 -7.36196,0 -13.33,-5.96805 -13.33,-13.33 0,-7.361959 5.96804,-13.330003 13.33,-13.330003 7.36196,0 13.33,5.968044 13.33,13.330003 z" /><circle
         clip-path="url(#SVGID_2_)"
         cx="163.125"
         cy="101.895"
         r="12.9"
         id="circle271"
         sodipodi:cx="163.125"
         sodipodi:cy="101.895"
         sodipodi:rx="12.9"
         sodipodi:ry="12.9"
         style="fill:#e2e4f2"
         d="m 176.025,101.895 c 0,7.12447 -5.77553,12.9 -12.9,12.9 -7.12447,0 -12.9,-5.77553 -12.9,-12.9 0,-7.124476 5.77553,-12.900003 12.9,-12.900003 7.12447,0 12.9,5.775527 12.9,12.900003 z" /><circle
         clip-path="url(#SVGID_2_)"
         cx="163.125"
         cy="101.895"
         r="12.47"
         id="circle273"
         sodipodi:cx="163.125"
         sodipodi:cy="101.895"
         sodipodi:rx="12.47"
         sodipodi:ry="12.47"
         style="fill:#e3e5f2"
         d="m 175.595,101.895 c 0,6.88699 -5.58301,12.47 -12.47,12.47 -6.88699,0 -12.47,-5.58301 -12.47,-12.47 0,-6.886994 5.58301,-12.470004 12.47,-12.470004 6.88699,0 12.47,5.58301 12.47,12.470004 z" /><circle
         clip-path="url(#SVGID_2_)"
         cx="163.125"
         cy="101.895"
         r="12.041"
         id="circle275"
         sodipodi:cx="163.125"
         sodipodi:cy="101.895"
         sodipodi:rx="12.041"
         sodipodi:ry="12.041"
         style="fill:#e4e6f3"
         d="m 175.166,101.895 c 0,6.65006 -5.39094,12.041 -12.041,12.041 -6.65006,0 -12.041,-5.39094 -12.041,-12.041 0,-6.650064 5.39094,-12.041004 12.041,-12.041004 6.65006,0 12.041,5.39094 12.041,12.041004 z" /><circle
         clip-path="url(#SVGID_2_)"
         cx="163.125"
         cy="101.895"
         r="11.61"
         id="circle277"
         sodipodi:cx="163.125"
         sodipodi:cy="101.895"
         sodipodi:rx="11.61"
         sodipodi:ry="11.61"
         style="fill:#e5e6f3"
         d="m 174.735,101.895 c 0,6.41202 -5.19797,11.61 -11.61,11.61 -6.41203,0 -11.61,-5.19798 -11.61,-11.61 0,-6.412029 5.19797,-11.610003 11.61,-11.610003 6.41203,0 11.61,5.197974 11.61,11.610003 z" /><circle
         clip-path="url(#SVGID_2_)"
         cx="163.125"
         cy="101.895"
         r="11.18"
         id="circle279"
         sodipodi:cx="163.125"
         sodipodi:cy="101.895"
         sodipodi:rx="11.18"
         sodipodi:ry="11.18"
         style="fill:#e6e7f4"
         d="m 174.305,101.895 c 0,6.17454 -5.00546,11.18 -11.18,11.18 -6.17454,0 -11.18,-5.00546 -11.18,-11.18 0,-6.174547 5.00546,-11.180004 11.18,-11.180004 6.17454,0 11.18,5.005457 11.18,11.180004 z" /><circle
         clip-path="url(#SVGID_2_)"
         cx="163.125"
         cy="101.895"
         r="10.75"
         id="circle281"
         sodipodi:cx="163.125"
         sodipodi:cy="101.895"
         sodipodi:rx="10.75"
         sodipodi:ry="10.75"
         style="fill:#e7e8f4"
         d="m 173.875,101.895 c 0,5.93706 -4.81294,10.75 -10.75,10.75 -5.93706,0 -10.75,-4.81294 -10.75,-10.75 0,-5.937064 4.81294,-10.750003 10.75,-10.750003 5.93706,0 10.75,4.812939 10.75,10.750003 z" /><circle
         clip-path="url(#SVGID_2_)"
         cx="163.125"
         cy="101.895"
         r="10.321"
         id="circle283"
         sodipodi:cx="163.125"
         sodipodi:cy="101.895"
         sodipodi:rx="10.321"
         sodipodi:ry="10.321"
         style="fill:#e8e9f5"
         d="m 173.446,101.895 c 0,5.70013 -4.62087,10.321 -10.321,10.321 -5.70013,0 -10.321,-4.62087 -10.321,-10.321 0,-5.700134 4.62087,-10.321003 10.321,-10.321003 5.70013,0 10.321,4.620869 10.321,10.321003 z" /><circle
         clip-path="url(#SVGID_2_)"
         cx="163.125"
         cy="101.895"
         r="9.8900003"
         id="circle285"
         sodipodi:cx="163.125"
         sodipodi:cy="101.895"
         sodipodi:rx="9.8900003"
         sodipodi:ry="9.8900003"
         style="fill:#e9eaf5"
         d="m 173.015,101.895 c 0,5.46209 -4.4279,9.89 -9.89,9.89 -5.4621,0 -9.89,-4.42791 -9.89,-9.89 0,-5.4621 4.4279,-9.890004 9.89,-9.890004 5.4621,0 9.89,4.427904 9.89,9.890004 z" /><circle
         clip-path="url(#SVGID_2_)"
         cx="163.125"
         cy="101.895"
         r="9.46"
         id="circle287"
         sodipodi:cx="163.125"
         sodipodi:cy="101.895"
         sodipodi:rx="9.46"
         sodipodi:ry="9.46"
         style="fill:#eaebf6"
         d="m 172.585,101.895 c 0,5.22461 -4.23539,9.46 -9.46,9.46 -5.22461,0 -9.46,-4.23539 -9.46,-9.46 0,-5.224617 4.23539,-9.460003 9.46,-9.460003 5.22461,0 9.46,4.235386 9.46,9.460003 z" /><circle
         clip-path="url(#SVGID_2_)"
         cx="163.125"
         cy="101.895"
         r="9.0299997"
         id="circle289"
         sodipodi:cx="163.125"
         sodipodi:cy="101.895"
         sodipodi:rx="9.0299997"
         sodipodi:ry="9.0299997"
         style="fill:#ebecf6"
         d="m 172.155,101.895 c 0,4.98713 -4.04287,9.03 -9.03,9.03 -4.98713,0 -9.03,-4.04287 -9.03,-9.03 0,-4.987135 4.04287,-9.030003 9.03,-9.030003 4.98713,0 9.03,4.042868 9.03,9.030003 z" /><circle
         clip-path="url(#SVGID_2_)"
         cx="163.125"
         cy="101.895"
         r="8.6000004"
         id="circle291"
         sodipodi:cx="163.125"
         sodipodi:cy="101.895"
         sodipodi:rx="8.6000004"
         sodipodi:ry="8.6000004"
         style="fill:#ecedf7"
         d="m 171.725,101.895 c 0,4.74965 -3.85035,8.6 -8.6,8.6 -4.74965,0 -8.6,-3.85035 -8.6,-8.6 0,-4.749652 3.85035,-8.600004 8.6,-8.600004 4.74965,0 8.6,3.850352 8.6,8.600004 z" /><circle
         clip-path="url(#SVGID_2_)"
         cx="163.125"
         cy="101.895"
         r="8.1709995"
         id="circle293"
         sodipodi:cx="163.125"
         sodipodi:cy="101.895"
         sodipodi:rx="8.1709995"
         sodipodi:ry="8.1709995"
         style="fill:#edeef7"
         d="m 171.296,101.895 c 0,4.51272 -3.65828,8.171 -8.171,8.171 -4.51272,0 -8.171,-3.65828 -8.171,-8.171 0,-4.512722 3.65828,-8.171003 8.171,-8.171003 4.51272,0 8.171,3.658281 8.171,8.171003 z" /><circle
         clip-path="url(#SVGID_2_)"
         cx="163.125"
         cy="101.895"
         r="7.7399998"
         id="circle295"
         sodipodi:cx="163.125"
         sodipodi:cy="101.895"
         sodipodi:rx="7.7399998"
         sodipodi:ry="7.7399998"
         style="fill:#eeeff8"
         d="m 170.865,101.895 c 0,4.27468 -3.46532,7.74 -7.74,7.74 -4.27468,0 -7.74,-3.46532 -7.74,-7.74 0,-4.274687 3.46532,-7.740003 7.74,-7.740003 4.27468,0 7.74,3.465316 7.74,7.740003 z" /><circle
         clip-path="url(#SVGID_2_)"
         cx="163.125"
         cy="101.895"
         r="7.3099999"
         id="circle297"
         sodipodi:cx="163.125"
         sodipodi:cy="101.895"
         sodipodi:rx="7.3099999"
         sodipodi:ry="7.3099999"
         style="fill:#eff0f8"
         d="m 170.435,101.895 c 0,4.0372 -3.2728,7.31 -7.31,7.31 -4.0372,0 -7.31,-3.2728 -7.31,-7.31 0,-4.037205 3.2728,-7.310003 7.31,-7.310003 4.0372,0 7.31,3.272798 7.31,7.310003 z" /><circle
         clip-path="url(#SVGID_2_)"
         cx="163.125"
         cy="101.895"
         r="6.8800001"
         id="circle299"
         sodipodi:cx="163.125"
         sodipodi:cy="101.895"
         sodipodi:rx="6.8800001"
         sodipodi:ry="6.8800001"
         style="fill:#f0f1f8"
         d="m 170.005,101.895 c 0,3.79972 -3.08028,6.88 -6.88,6.88 -3.79972,0 -6.88,-3.08028 -6.88,-6.88 0,-3.799722 3.08028,-6.880003 6.88,-6.880003 3.79972,0 6.88,3.080281 6.88,6.880003 z" /><circle
         clip-path="url(#SVGID_2_)"
         cx="163.125"
         cy="101.895"
         r="6.4510002"
         id="circle301"
         sodipodi:cx="163.125"
         sodipodi:cy="101.895"
         sodipodi:rx="6.4510002"
         sodipodi:ry="6.4510002"
         style="fill:#f1f2f9"
         d="m 169.576,101.895 c 0,3.56279 -2.88821,6.451 -6.451,6.451 -3.56279,0 -6.451,-2.88821 -6.451,-6.451 0,-3.562792 2.88821,-6.451004 6.451,-6.451004 3.56279,0 6.451,2.888212 6.451,6.451004 z" /><circle
         clip-path="url(#SVGID_2_)"
         cx="163.125"
         cy="101.895"
         r="6.02"
         id="circle303"
         sodipodi:cx="163.125"
         sodipodi:cy="101.895"
         sodipodi:rx="6.02"
         sodipodi:ry="6.02"
         style="fill:#f2f3f9"
         d="m 169.145,101.895 c 0,3.32475 -2.69525,6.02 -6.02,6.02 -3.32475,0 -6.02,-2.69525 -6.02,-6.02 0,-3.324758 2.69525,-6.020003 6.02,-6.020003 3.32475,0 6.02,2.695245 6.02,6.020003 z" /><circle
         clip-path="url(#SVGID_2_)"
         cx="163.125"
         cy="101.895"
         r="5.5900002"
         id="circle305"
         sodipodi:cx="163.125"
         sodipodi:cy="101.895"
         sodipodi:rx="5.5900002"
         sodipodi:ry="5.5900002"
         style="fill:#f3f4fa"
         d="m 168.715,101.895 c 0,3.08727 -2.50273,5.59 -5.59,5.59 -3.08727,0 -5.59,-2.50273 -5.59,-5.59 0,-3.087275 2.50273,-5.590004 5.59,-5.590004 3.08727,0 5.59,2.502729 5.59,5.590004 z" /><circle
         clip-path="url(#SVGID_2_)"
         cx="163.125"
         cy="101.895"
         r="5.1599998"
         id="circle307"
         sodipodi:cx="163.125"
         sodipodi:cy="101.895"
         sodipodi:rx="5.1599998"
         sodipodi:ry="5.1599998"
         style="fill:#f4f5fa"
         d="m 168.285,101.895 c 0,2.84979 -2.31021,5.16 -5.16,5.16 -2.84979,0 -5.16,-2.31021 -5.16,-5.16 0,-2.849793 2.31021,-5.160003 5.16,-5.160003 2.84979,0 5.16,2.31021 5.16,5.160003 z" /><circle
         clip-path="url(#SVGID_2_)"
         cx="163.125"
         cy="101.895"
         r="4.7309999"
         id="circle309"
         sodipodi:cx="163.125"
         sodipodi:cy="101.895"
         sodipodi:rx="4.7309999"
         sodipodi:ry="4.7309999"
         style="fill:#f5f6fb"
         d="m 167.856,101.895 c 0,2.61286 -2.11814,4.731 -4.731,4.731 -2.61286,0 -4.731,-2.11814 -4.731,-4.731 0,-2.612862 2.11814,-4.731003 4.731,-4.731003 2.61286,0 4.731,2.118141 4.731,4.731003 z" /><circle
         clip-path="url(#SVGID_2_)"
         cx="163.125"
         cy="101.895"
         r="4.3000002"
         id="circle311"
         sodipodi:cx="163.125"
         sodipodi:cy="101.895"
         sodipodi:rx="4.3000002"
         sodipodi:ry="4.3000002"
         style="fill:#f6f7fb"
         d="m 167.425,101.895 c 0,2.37482 -1.92518,4.3 -4.3,4.3 -2.37482,0 -4.3,-1.92518 -4.3,-4.3 0,-2.374828 1.92518,-4.300004 4.3,-4.300004 2.37482,0 4.3,1.925176 4.3,4.300004 z" /><circle
         clip-path="url(#SVGID_2_)"
         cx="163.125"
         cy="101.895"
         r="3.8699999"
         id="circle313"
         sodipodi:cx="163.125"
         sodipodi:cy="101.895"
         sodipodi:rx="3.8699999"
         sodipodi:ry="3.8699999"
         style="fill:#f7f8fc"
         d="m 166.995,101.895 c 0,2.13734 -1.73266,3.87 -3.87,3.87 -2.13734,0 -3.87,-1.73266 -3.87,-3.87 0,-2.137345 1.73266,-3.870003 3.87,-3.870003 2.13734,0 3.87,1.732658 3.87,3.870003 z" /><circle
         clip-path="url(#SVGID_2_)"
         cx="163.125"
         cy="101.895"
         r="3.4400001"
         id="circle315"
         sodipodi:cx="163.125"
         sodipodi:cy="101.895"
         sodipodi:rx="3.4400001"
         sodipodi:ry="3.4400001"
         style="fill:#f8f9fc"
         d="m 166.565,101.895 c 0,1.89986 -1.54014,3.44 -3.44,3.44 -1.89986,0 -3.44,-1.54014 -3.44,-3.44 0,-1.899863 1.54014,-3.440003 3.44,-3.440003 1.89986,0 3.44,1.54014 3.44,3.440003 z" /><circle
         clip-path="url(#SVGID_2_)"
         cx="163.125"
         cy="101.895"
         r="3.01"
         id="circle317"
         sodipodi:cx="163.125"
         sodipodi:cy="101.895"
         sodipodi:rx="3.01"
         sodipodi:ry="3.01"
         style="fill:#f9fafd"
         d="m 166.135,101.895 c 0,1.66237 -1.34762,3.01 -3.01,3.01 -1.66238,0 -3.01,-1.34763 -3.01,-3.01 0,-1.66238 1.34762,-3.010003 3.01,-3.010003 1.66238,0 3.01,1.347623 3.01,3.010003 z" /><circle
         clip-path="url(#SVGID_2_)"
         cx="163.125"
         cy="101.895"
         r="2.5799999"
         id="circle319"
         sodipodi:cx="163.125"
         sodipodi:cy="101.895"
         sodipodi:rx="2.5799999"
         sodipodi:ry="2.5799999"
         style="fill:#fafbfd"
         d="m 165.705,101.895 c 0,1.42489 -1.15511,2.58 -2.58,2.58 -1.42489,0 -2.58,-1.15511 -2.58,-2.58 0,-1.4249 1.15511,-2.580003 2.58,-2.580003 1.42489,0 2.58,1.155103 2.58,2.580003 z" /><circle
         clip-path="url(#SVGID_2_)"
         cx="163.125"
         cy="101.895"
         r="2.1500001"
         id="circle321"
         sodipodi:cx="163.125"
         sodipodi:cy="101.895"
         sodipodi:rx="2.1500001"
         sodipodi:ry="2.1500001"
         style="fill:#fbfbfd"
         d="m 165.275,101.895 c 0,1.18741 -0.96259,2.15 -2.15,2.15 -1.18741,0 -2.15,-0.96259 -2.15,-2.15 0,-1.18742 0.96259,-2.150003 2.15,-2.150003 1.18741,0 2.15,0.962583 2.15,2.150003 z" /><circle
         clip-path="url(#SVGID_2_)"
         cx="163.125"
         cy="101.895"
         r="1.72"
         id="circle323"
         sodipodi:cx="163.125"
         sodipodi:cy="101.895"
         sodipodi:rx="1.72"
         sodipodi:ry="1.72"
         style="fill:#fcfcfe"
         d="m 164.845,101.895 c 0,0.94993 -0.77007,1.72 -1.72,1.72 -0.94993,0 -1.72,-0.77007 -1.72,-1.72 0,-0.94993 0.77007,-1.72 1.72,-1.72 0.94993,0 1.72,0.77007 1.72,1.72 z" /><circle
         clip-path="url(#SVGID_2_)"
         cx="163.125"
         cy="101.895"
         r="1.29"
         id="circle325"
         sodipodi:cx="163.125"
         sodipodi:cy="101.895"
         sodipodi:rx="1.29"
         sodipodi:ry="1.29"
         style="fill:#fdfdfe"
         d="m 164.415,101.895 c 0,0.71244 -0.57755,1.29 -1.29,1.29 -0.71245,0 -1.29,-0.57756 -1.29,-1.29 0,-0.71245 0.57755,-1.29 1.29,-1.29 0.71245,0 1.29,0.57755 1.29,1.29 z" /><circle
         clip-path="url(#SVGID_2_)"
         cx="163.125"
         cy="101.895"
         r="0.86000001"
         id="circle327"
         sodipodi:cx="163.125"
         sodipodi:cy="101.895"
         sodipodi:rx="0.86000001"
         sodipodi:ry="0.86000001"
         style="fill:#fefeff"
         d="m 163.985,101.895 c 0,0.47496 -0.38504,0.86 -0.86,0.86 -0.47496,0 -0.86,-0.38504 -0.86,-0.86 0,-0.47497 0.38504,-0.86 0.86,-0.86 0.47496,0 0.86,0.38503 0.86,0.86 z" /><circle
         clip-path="url(#SVGID_2_)"
         cx="163.125"
         cy="101.895"
         r="0.43000001"
         id="circle329"
         sodipodi:cx="163.125"
         sodipodi:cy="101.895"
         sodipodi:rx="0.43000001"
         sodipodi:ry="0.43000001"
         style="fill:#ffffff"
         d="m 163.555,101.895 c 0,0.23748 -0.19252,0.43 -0.43,0.43 -0.23748,0 -0.43,-0.19252 -0.43,-0.43 0,-0.23749 0.19252,-0.43 0.43,-0.43 0.23748,0 0.43,0.19251 0.43,0.43 z" /></g></g><g
     transform="translate(-70.91353,-59.77393)"
     id="g3484"
     style="opacity:0.79012346000000000;fill:#0e0e0e;fill-opacity:1;stroke:none;filter:url(#filter4703)"><path
       d="m 79.455,127.365 -0.771877,-0.0198 C 78.331123,125.94819 76.771,127.57 76.431,126.148 l 3.156,-4.775 7.621,13.896 1.799,-23.156 8.477,25.899 1.062,-43.729 9.377,48.402 1.428,-27.495 4.668,17.158 3.4,-8.003 4.283,6.54 4.912,-7.176 4.201,11.992 0.631,-22.541 6.568,16.926 3.096,-10.14 4.89,11.054 20.74,-1.285 0.471,2.877 -23.186,1.436 -2.281,-5.16 -3.863,12.657 -3.576,-13.374 -3.127,19.149 -5.398,-16.721 -4.109,6.005 -3.787,-6.246 -3.887,14.388 -3.328,-12.997 -0.826,33.198 -9.506,-44.655 -1.434,33.626 -7.592,-28.562 -2.621,20.404 z"
       id="path3486"
       inkscape:connector-curvature="0"
       style="fill:#0e0e0e;fill-opacity:1;stroke:none"
       sodipodi:nodetypes="ccccccccccccccccccccccccccccccccccccc" /></g><path
     d="m 57.5338,6.987 0.664,-3.438 -2.623,1.713 -31.765,28.245 c -4.308,3.832 -6.261,9.718 -5.097,15.363 l 8.576,41.632 c 1.162,5.646 5.283,10.28 10.754,12.096 l 40.342,13.389 c 5.472,1.817 11.547,0.565 15.854,-3.266 l 31.766,-28.244 c 4.308,-3.828 6.262,-9.715 5.099,-15.362 l -8.576,-41.632 c -1.162,-5.646 -5.284,-10.282 -10.757,-12.097 0.001,0 -40.341,-13.39 -40.341,-13.39 -5.47,-1.816 -11.545,-0.565 -15.854,3.267 -10e-4,0 1.958,1.725 1.958,1.724 z m 12.951,-2.143 40.342,13.39 c 4.458,1.479 7.816,5.254 8.764,9.854 l 8.576,41.632 c 0.947,4.601 -0.645,9.396 -4.154,12.515 -0.001,0 -31.767,28.244 -31.767,28.244 -3.509,3.122 -8.457,4.141 -12.915,2.66 L 38.9888,99.75 c -4.457,-1.479 -7.814,-5.254 -8.762,-9.853 0,-0.001 -8.576,-41.634 -8.576,-41.634 -0.948,-4.598 0.644,-9.394 4.153,-12.515 L 57.5698,7.503 55.0728,6.382 v 3.341 c 0,10e-4 2.497,-2.219 2.497,-2.219 3.51,-3.12 8.458,-4.14 12.915,-2.66 z"
     id="path331"
     inkscape:connector-curvature="0"
     style="fill:#063e85" /><path
     stroke-miterlimit="3.8636"
     d="M 119.9398,44.488"
     id="path333"
     inkscape:connector-curvature="0"
     style="fill:none;stroke:#063e85;stroke-width:4.92759991;stroke-miterlimit:3.86360002" /><path
     stroke-miterlimit="3.8636"
     d="M 47.5818,24.425"
     id="path335"
     inkscape:connector-curvature="0"
     style="fill:none;stroke:#063e85;stroke-width:4.85309982;stroke-miterlimit:3.86360002" /><g
     id="g337"
     transform="translate(-72.7012,-61.733)"><g
       id="g339"><rect
         x="151.498"
         y="107.457"
         transform="matrix(-0.2117,-0.9773,0.9773,-0.2117,133.3658,324.4836)"
         width="92.088997"
         height="2"
         id="rect341"
         style="fill:#063e85" /></g><g
       id="g343"><path
         d="m 179.102,64.037 c 4.726,5.026 20.637,88.438 19.726,92.646 l 1.895,0.637 c 1.375,-3.826 -14.436,-88.562 -20.163,-94.653 l -1.458,1.37 z"
         id="path345"
         inkscape:connector-curvature="0"
         style="fill:#063e85" /></g><g
       id="g347"><path
         d="m 171.138,63.934 c 10.729,11.413 22.229,90.562 20.19,96.235 l 1.883,0.676 c 2.86,-7.965 -10.131,-87.127 -20.616,-98.281 l -1.457,1.37 z"
         id="path349"
         inkscape:connector-curvature="0"
         style="fill:#063e85" /></g><g
       id="g351"><path
         d="m 163.173,63.83 c 15.679,16.679 24.258,89.805 20.645,99.864 l 1.883,0.676 c 3.687,-10.264 -5.069,-84.888 -21.07,-101.91 l -1.458,1.37 z"
         id="path353"
         inkscape:connector-curvature="0"
         style="fill:#063e85" /></g><g
       id="g355"><path
         d="m 155.208,63.726 c 21.239,22.594 25.68,90.739 21.098,103.492 l 1.883,0.676 c 5.377,-14.966 -0.875,-83.572 -21.523,-105.538 l -1.458,1.37 z"
         id="path357"
         inkscape:connector-curvature="0"
         style="fill:#063e85" /></g><g
       id="g359"><path
         d="m 147.243,63.622 c 25.094,26.693 28.079,88.95 21.552,107.12 l 1.883,0.676 C 177.109,153.517 175.33,90.579 148.7,62.252 l -1.457,1.37 z"
         id="path361"
         inkscape:connector-curvature="0"
         style="fill:#063e85" /></g><g
       id="g363"><path
         d="m 139.279,63.518 c 31.843,33.873 28.686,92.152 22.005,110.749 l 1.883,0.676 c 3.374,-9.392 6.324,-28.542 3.535,-51.606 -2.126,-17.574 -8.355,-42.455 -25.966,-61.188 l -1.457,1.369 z"
         id="path365"
         inkscape:connector-curvature="0"
         style="fill:#063e85" /></g><g
       id="g367"><path
         d="m 131.314,63.415 c 36.295,38.608 31.194,90.061 22.459,114.376 l 1.883,0.676 c 8.889,-24.744 14.072,-77.109 -22.885,-116.422 l -1.457,1.37 z"
         id="path369"
         inkscape:connector-curvature="0"
         style="fill:#063e85" /></g><g
       id="g371"><path
         d="m 123.35,63.311 c 31.352,33.351 39.062,73.053 22.913,118.005 l 1.883,0.676 c 16.423,-45.716 8.57,-86.107 -23.339,-120.051 l -1.457,1.37 z"
         id="path373"
         inkscape:connector-curvature="0"
         style="fill:#063e85" /></g><g
       id="g375"><path
         d="m 115.385,63.207 c 44.773,47.628 36.095,86.203 23.367,121.633 l 1.883,0.676 c 5.904,-16.438 11.553,-34.195 10.154,-54.628 -1.635,-23.904 -12.739,-46.491 -33.947,-69.05 l -1.457,1.369 z"
         id="path377"
         inkscape:connector-curvature="0"
         style="fill:#063e85" /></g><g
       id="g379"><path
         d="m 107.42,63.103 c 49.963,53.147 37.409,87.772 25.269,121.256 l -1.448,4.006 1.883,0.676 1.445,-4 c 12.347,-34.053 25.113,-69.265 -25.691,-123.308 l -1.458,1.37 z"
         id="path381"
         inkscape:connector-curvature="0"
         style="fill:#063e85" /></g></g><g
     id="g387"
     transform="translate(-72.7012,-61.733)"><path
       style="fill:#ffffff"
       inkscape:connector-curvature="0"
       id="path389"
       d="m 79.455,127.365 -1.973,2.983 c -0.352,-1.397 -0.711,-2.778 -1.051,-4.2 l 3.156,-4.775 7.621,13.896 1.799,-23.156 8.477,25.899 1.062,-43.729 9.377,48.402 1.428,-27.495 4.668,17.158 3.4,-8.003 4.283,6.54 4.912,-7.176 4.201,11.992 0.631,-22.541 6.568,16.926 3.096,-10.14 4.89,11.054 20.74,-1.285 0.471,2.877 -23.186,1.436 -2.281,-5.16 -3.863,12.657 -3.576,-13.374 -3.127,19.149 -5.398,-16.721 -4.109,6.005 -3.787,-6.246 -3.887,14.388 -3.328,-12.997 -0.826,33.198 -9.506,-44.655 -1.434,33.626 -7.592,-28.562 -2.621,20.404 -9.235,-18.375 z" /></g><path
     d="m 140.7238,0.59 c -19.465,25.857 -23.73,21.998 -32.262,34.389 -2.357,3.423 -1.888,10.176 3.656,10.766 3.697,0.393 6.514,-0.978 10.348,-3.811 L 140.7238,0.59 z"
     id="path391"
     inkscape:connector-curvature="0"
     style="fill:#c04826" /></svg>