<?xml version="1.0" encoding="UTF-8" standalone="no"?>
<svg
   xmlns:dc="http://purl.org/dc/elements/1.1/"
   xmlns:cc="http://creativecommons.org/ns#"
   xmlns:rdf="http://www.w3.org/1999/02/22-rdf-syntax-ns#"
   xmlns:svg="http://www.w3.org/2000/svg"
   xmlns="http://www.w3.org/2000/svg"
   xmlns:sodipodi="http://sodipodi.sourceforge.net/DTD/sodipodi-0.dtd"
   xmlns:inkscape="http://www.inkscape.org/namespaces/inkscape"
   width="781.59998"
   height="327.86041"
   viewBox="0 0 625.27998 262.28833"
   version="1.1"
   id="svg2"
   inkscape:version="0.48.4 r9939"
   sodipodi:docname="logo-renass.svg">
  <metadata
     id="metadata170">
    <rdf:RDF>
      <cc:Work
         rdf:about="">
        <dc:format>image/svg+xml</dc:format>
        <dc:type
           rdf:resource="http://purl.org/dc/dcmitype/StillImage" />
      </cc:Work>
    </rdf:RDF>
  </metadata>
  <defs
     id="defs168" />
  <sodipodi:namedview
     pagecolor="#ffffff"
     bordercolor="#666666"
     borderopacity="1"
     objecttolerance="10"
     gridtolerance="10"
     guidetolerance="10"
     inkscape:pageopacity="0"
     inkscape:pageshadow="2"
     inkscape:window-width="1871"
     inkscape:window-height="1176"
     id="namedview166"
     showgrid="false"
     inkscape:zoom="1.370088"
     inkscape:cx="345.392"
     inkscape:cy="87.995589"
     inkscape:window-x="49"
     inkscape:window-y="24"
     inkscape:window-maximized="1"
     inkscape:current-layer="svg2"
     fit-margin-top="0"
     fit-margin-left="0"
     fit-margin-right="0"
     fit-margin-bottom="0" />
  <path
     d="m 120.05,0 4.5,37.87 c 1.32,13.13 1.79,26.32 3.13,39.44 0.62,8.03 1.21,16.05 1.54,24.1 1.03,-7.37 1.7,-14.78 1.93,-22.21 1.1,-5.99 0.49,-12.09 0.99,-18.12 0.35,-2.97 0.25,-6.02 1.29,-8.87 l 0.25,0.97 c 3.88,17.92 5.99,36.16 9.8,54.1 0.69,4.33 1.28,8.68 1.8,13.04 3.69,-5.59 7.01,-11.43 11.09,-16.76 0.28,0.47 0.85,1.41 1.13,1.88 3.83,6.26 7.1,12.87 11.2,18.97 1.98,0.55 4.07,0.37 6.11,0.41 35.46,-0.23 70.92,-0.32 106.38,-0.52 13.24,0.05 26.47,-0.13 39.7,-0.1 8.37,-0.08 16.74,-0.05 25.11,-0.12 1.58,-0.01 3.16,-0.01 4.75,-0.01 2.97,0.01 5.94,-0.03 8.91,-0.06 1.4,-0.02 2.8,-0.02 4.21,-0.02 5.63,0.01 11.27,-0.03 16.91,-0.03 7.7,-0.04 15.4,-0.01 23.11,0 3.95,0 7.89,0 11.84,0 9.12,0 18.23,0 27.35,0 1.82,0 3.65,0 5.49,0 58.44,0 116.88,0 175.32,0 -0.01,2.61 0,5.22 0,7.83 -58.67,0.31 -117.34,0.12 -176.01,0.17 -2.19,-0.01 -4.37,0 -6.55,0 -8.91,0 -17.82,0 -26.73,-0.01 -4.22,0.01 -8.44,0.01 -12.66,0.01 -7.44,0.08 -14.88,-0.03 -22.31,-0.01 -6.18,0.01 -12.36,0.01 -18.54,0.01 -1.41,0 -2.8,0 -4.2,0 -3.34,0 -6.67,0 -10.01,0 -1.62,0 -3.24,0 -4.85,0.01 -49.61,0.09 -99.22,0.02 -148.83,-0.01 -2.14,0 -4.28,0 -6.42,0 -7.26,0 -14.51,-0.01 -21.77,0 -2.29,-4.06 -4.46,-8.19 -6.83,-12.2 -0.6,-1.14 -1.23,-2.28 -1.85,-3.41 -3.32,4.92 -6.48,9.93 -9.64,14.94 -1.54,2.43 -3.01,4.9 -4.59,7.3 -2.72,-9.7 -3.79,-19.76 -5.8,-29.61 -0.91,6.26 -1.57,12.54 -1.59,18.86 -1.21,6.04 -0.45,12.23 -1.52,18.29 -0.44,3.84 -0.24,7.71 -0.53,11.57 -1.05,6.47 -0.27,13.07 -1.33,19.55 -0.71,4.76 -0.08,9.65 -1.32,14.35 -0.26,0.49 -0.79,1.48 -1.05,1.97 -0.01,-1.38 -0.02,-2.76 -0.04,-4.14 -0.79,-12.47 -2.07,-24.92 -3.02,-37.39 -0.07,-9.38 -1.62,-18.69 -1.99,-28.06 0.13,-5.7 -1.4,-11.25 -1.12,-16.96 -1.21,-5.99 -0.6,-12.13 -1.8,-18.12 0.03,-5.45 -0.45,-10.9 -1.87,-16.18 -0.86,14.99 -3.2,29.86 -4.66,44.81 -0.99,11 -2.03,22.02 -3.6,32.97 -0.12,0.77 -0.37,2.33 -0.49,3.11 -4.99,-11.99 -9.23,-24.28 -14.2,-36.28 -1.58,5.49 -1.68,11.28 -3.25,16.77 -7.68,-0.29 -15.37,-0.07 -23.05,-0.14 -4.26,0 -8.52,0 -12.78,0 -9.44,0.11 -18.89,-0.23 -28.32,0.21 0.02,-2.41 0.02,-4.83 0.02,-7.24 9.4,0.06 18.8,0.01 28.19,0.03 3.87,0 7.74,0 11.61,0 6.35,0.01 12.7,0.05 19.05,-0.2 0.23,-3.24 1.16,-6.36 1.7,-9.54 1.37,-8.65 3.6,-17.13 5.03,-25.77 4.32,10.76 7.85,21.83 12.6,32.41 0.62,-2.09 1.07,-4.25 0.92,-6.45 0.47,-11.35 2.46,-22.59 3.54,-33.89 0.99,-11.13 2.22,-22.23 3.17,-33.36 1.24,-8.63 2.51,-17.29 2.84,-26.01 1.20532,-8.326273 2.11708,-16.2433417 2.61,-24.15 z"
     id="path6"
     inkscape:connector-curvature="0"
     style="fill:#000000"
     sodipodi:nodetypes="ccccccccccccccccccccccssscccscccsssccscccccccccccccccccccccccccccccccccccccc" />
  <path
     d="m 72.18,24.48 c 2.73,-0.06 5.46,-0.16 8.18,-0.36 -2.34,3.96 -4.1,8.27 -4.8,12.83 -0.98,6.1 -4.14,11.71 -4.19,17.99 -0.24,6.8 -3.38,13.16 -3.04,20.03 0.28,10.71 -0.74,21.42 -0.2,32.13 0.33,6.62 0.11,13.25 0.46,19.86 -3.87,0 -7.74,0 -11.61,0 -1.72,-14.25 0.06,-28.57 0.55,-42.82 0.66,-6.12 2.98,-11.99 2.83,-18.22 -0.31,-5.64 2.92,-10.54 3.74,-15.99 0.52,-3.21 1.25,-6.39 2.53,-9.39 2.24,-5.22 3.41,-10.81 5.55,-16.06 z"
     id="path8"
     inkscape:connector-curvature="0"
     style="fill:#92bce4" />
  <path
     d="m 108.36,24.35 c 3.02,-0.02 6.05,-0.08 9.08,-0.2 -0.33,8.72 -1.6,17.38 -2.84,26.01 -0.23,-1.6 -0.5,-3.19 -0.8,-4.77 -2.66,6.83 -3.72,14.12 -5.36,21.23 -2.16,9.64 -1.62,19.58 -2.75,29.34 -0.75,7.22 -0.33,14.59 2.2,21.45 0.15,2.2 -0.3,4.36 -0.92,6.45 -4.75,-10.58 -8.28,-21.65 -12.6,-32.41 -1.43,8.64 -3.66,17.12 -5.03,25.77 -0.03,-10.7 1.06,-21.35 2.34,-31.96 2.03,-9.69 2.47,-19.68 5.51,-29.16 2.3,-11.04 6.92,-21.37 11.17,-31.75 z"
     id="path10"
     inkscape:connector-curvature="0"
     style="fill:#92bce4" />
  <path
     d="m 145.37,24.31 c 6.38,-0.17 12.77,-0.09 19.16,-0.24 -6.97,9.63 -10,21.36 -14.25,32.3 -2.26,7.16 -3.43,14.63 -5.04,21.96 -1.02,9.61 -1.77,19.28 -1.76,28.95 -3.81,-17.94 -5.92,-36.18 -9.8,-54.1 2.24,-10.21 7.86,-19.23 11.69,-28.87 z"
     id="path12"
     inkscape:connector-curvature="0"
     style="fill:#92bce4" />
  <path
     d="m 184.19,26.2 c 1.44,-2.27 4.28,-2.15 6.64,-2.2 6.94,-0.03 13.88,0.08 20.82,-0.06 -7.03,7.61 -12.14,16.69 -17.21,25.66 -3.72,6.32 -5.13,13.6 -7.59,20.43 -1.78,5.14 -3.75,10.36 -3.83,15.88 -0.39,10.19 -0.43,20.42 0.16,30.6 0.28,2.72 0.67,5.81 2.79,7.76 2.03,0.25 4.09,0.18 6.14,0.2 0.03,-9.19 -0.12,-18.39 0.08,-27.58 0,-4.46 1.68,-8.64 2.73,-12.91 0.97,-3.72 1.32,-7.61 2.87,-11.16 4.82,-10.99 9.7,-22.22 17.45,-31.52 4.38,-6.16 9.73,-11.64 15.8,-16.15 1.63,-1.32 3.82,-1.19 5.79,-1.27 28.35,0.12 56.71,0.07 85.06,0.04 4.41,0.11 9.25,-0.64 13.2,1.82 7.37,4.4 14.74,8.99 20.78,15.16 10.11,9.18 17.26,21.18 22.21,33.81 2.6,5.27 3.18,11.15 4.2,16.85 2.25,10.7 1.69,21.95 -1.5,32.4 -5.64,0 -11.28,0.04 -16.91,0.03 1.11,-5.23 2.24,-10.49 2.38,-15.85 -0.05,-14.88 -4.3,-30.05 -13.77,-41.73 -8.8,-11.01 -21.41,-19.47 -35.55,-21.45 -5.97,-0.91 -12.26,-1.75 -18.14,0.08 -1.28,0.54 -3.43,0.83 -2.81,2.73 2.71,2.47 6.7,2.25 10.04,3.25 9.77,2.62 19.18,7.22 26.51,14.3 4.63,4.47 8.43,9.76 11.56,15.37 3.11,5.48 4.05,11.8 5.07,17.93 1.5,8.6 -1.15,17.17 -3.16,25.46 -8.37,0.07 -16.74,0.04 -25.11,0.12 4.57,-5.63 8.15,-12.73 6.95,-20.19 -1.41,-7.74 -4.94,-15.87 -12,-20.02 -6.36,-4.04 -14.4,-4.93 -21.51,-2.43 -4,0.8 -6.84,3.86 -9.12,7.02 5.47,-1.03 11.18,-3.94 16.74,-1.72 5.13,2.03 9.88,5.64 12.37,10.67 2.36,4.48 2.53,10.26 -0.25,14.59 -3.13,5.35 -8.55,10.39 -15.17,10.06 -5.89,0.41 -11.19,-3.06 -15.06,-7.19 -3.72,-4.3 -3.9,-10.27 -5.33,-15.52 -1.34,3.32 -2.7,6.78 -2.47,10.44 0.02,5.26 2.79,9.88 5.15,14.39 -35.46,0.2 -70.92,0.29 -106.38,0.52 -2.04,-0.04 -4.13,0.14 -6.11,-0.41 -4.1,-6.1 -7.37,-12.71 -11.2,-18.97 1.37,-10.71 2.59,-21.48 5.14,-31.98 3.23,-10.01 6.21,-20.2 11.28,-29.48 3.29,-5.99 6.34,-12.17 10.27,-17.78 z"
     id="path14"
     inkscape:connector-curvature="0"
     style="fill:#92bce4" />
  <path
     d="m 365.94,23.83 c 5.66,0.51 11.19,1.91 16.84,2.52 2.5,0.18 4.18,2.24 5.88,3.84 8.77,9.14 15.65,20.14 19.92,32.07 3.84,9.88 7.65,20.04 7.86,30.77 0.17,10.3 0.79,20.7 -0.71,30.93 -3.95,0 -7.89,0 -11.84,0 0.88,-10.66 2.39,-21.54 0.11,-32.13 -1.96,-7.43 -2.49,-15.23 -5.46,-22.39 -6.23,-17.97 -18.3,-33.31 -32.6,-45.61 z"
     id="path16"
     inkscape:connector-curvature="0"
     style="fill:#92bce4" />
  <path
     d="m 283.44,26.62 c 3.75,-0.88 7.63,-0.63 11.45,-0.68 3.66,0.05 7.48,-0.25 10.96,1.13 1.21,0.6 3.32,0.89 2.79,2.73 -4.82,1.81 -10.19,0.36 -15.11,1.85 -4.25,1.25 -8.73,1.22 -13,2.26 -11.71,4.62 -23.31,10.42 -32.26,19.47 -6.29,5.87 -11.13,13.07 -15.42,20.48 -2.52,4.31 -3.68,9.67 -7.95,12.71 0.57,-10.63 4.78,-20.9 11.23,-29.3 6.16,-9.12 14.75,-16.3 24.03,-22.06 7.28,-3.99 15.24,-6.59 23.28,-8.59 z"
     id="path18"
     inkscape:connector-curvature="0"
     style="fill:#ffffff" />
  <path
     d="m 298.79,45.04 c 5.88,-1.83 12.17,-0.99 18.14,-0.08 14.14,1.98 26.75,10.44 35.55,21.45 9.47,11.68 13.72,26.85 13.77,41.73 -0.14,5.36 -1.27,10.62 -2.38,15.85 -1.41,0 -2.81,0 -4.21,0.02 -0.11,-7.32 0.63,-14.65 -0.12,-21.94 -0.26,-2.58 -1.84,-4.72 -3.17,-6.85 -0.73,5.74 -0.44,11.64 -2.05,17.25 -1.12,3.89 -2.44,7.72 -3.57,11.6 -1.59,0 -3.17,0 -4.75,0.01 2.01,-8.29 4.66,-16.86 3.16,-25.46 -1.02,-6.13 -1.96,-12.45 -5.07,-17.93 -3.13,-5.61 -6.93,-10.9 -11.56,-15.37 -7.33,-7.08 -16.74,-11.68 -26.51,-14.3 -3.34,-1 -7.33,-0.78 -10.04,-3.25 -0.62,-1.9 1.53,-2.19 2.81,-2.73 z"
     id="path20"
     inkscape:connector-curvature="0"
     style="fill:#ffffff" />
  <path
     d="m 108.44,66.62 c 1.64,-7.11 2.7,-14.4 5.36,-21.23 0.3,1.58 0.57,3.17 0.8,4.77 -0.95,11.13 -2.18,22.23 -3.17,33.36 -1.08,11.3 -3.07,22.54 -3.54,33.89 -2.53,-6.86 -2.95,-14.23 -2.2,-21.45 1.13,-9.76 0.59,-19.7 2.75,-29.34 z"
     id="path22"
     inkscape:connector-curvature="0"
     style="fill:#ffffff" />
  <path
     d="m 127.68,77.31 c 1.43,-5.78 0.6,-12.47 4.52,-17.36 l -0.06,1.13 c -0.5,6.03 0.11,12.13 -0.99,18.12 -0.23,7.43 -0.9,14.84 -1.93,22.21 -0.33,-8.05 -0.92,-16.07 -1.54,-24.1 z"
     id="path24"
     inkscape:connector-curvature="0"
     style="fill:#92bce4" />
  <path
     d="m 441.22,63.86 c 3.7,8.98 7.02,18.34 7.47,28.13 1.18,10.62 1.25,21.37 -0.12,31.97 -1.84,0 -3.67,0 -5.49,0 2.03,-9.87 0.99,-19.99 1.25,-29.99 0.51,-10.2 -4.06,-19.87 -3.11,-30.11 z"
     id="path26"
     inkscape:connector-curvature="0"
     style="fill:#92bce4" />
  <path
     d="m 119.12,72.72 c 1.42,5.28 1.9,10.73 1.87,16.18 1.2,5.99 0.59,12.13 1.8,18.12 -0.28,5.71 1.25,11.26 1.12,16.96 0.37,9.37 1.92,18.68 1.99,28.06 0.95,12.47 2.23,24.92 3.02,37.39 -6.13,-8.29 -9.73,-18.09 -12.78,-27.84 -1.19,-3.95 -3.03,-7.65 -5.28,-11.09 1.57,-10.95 2.61,-21.97 3.6,-32.97 1.46,-14.95 3.8,-29.82 4.66,-44.81 z"
     id="path28"
     inkscape:connector-curvature="0"
     style="fill:#ffffff" />
  <path
     d="m 294.33,81.56 c 7.11,-2.5 15.15,-1.61 21.51,2.43 7.06,4.15 10.59,12.28 12,20.02 1.2,7.46 -2.38,14.56 -6.95,20.19 -13.23,-0.03 -26.46,0.15 -39.7,0.1 -2.36,-4.51 -5.13,-9.13 -5.15,-14.39 -0.23,-3.66 1.13,-7.12 2.47,-10.44 1.43,5.25 1.61,11.22 5.33,15.52 3.87,4.13 9.17,7.6 15.06,7.19 6.62,0.33 12.04,-4.71 15.17,-10.06 2.78,-4.33 2.61,-10.11 0.25,-14.59 -2.49,-5.03 -7.24,-8.64 -12.37,-10.67 -5.56,-2.22 -11.27,0.69 -16.74,1.72 2.28,-3.16 5.12,-6.22 9.12,-7.02 z"
     id="path30"
     inkscape:connector-curvature="0"
     style="fill:#ffffff" />
  <path
     d="m 356.37,95.22 c 1.33,2.13 2.91,4.27 3.17,6.85 0.75,7.29 0.01,14.62 0.12,21.94 -2.97,0.03 -5.94,0.07 -8.91,0.06 1.13,-3.88 2.45,-7.71 3.57,-11.6 1.61,-5.61 1.32,-11.51 2.05,-17.25 z"
     id="path32"
     inkscape:connector-curvature="0"
     style="fill:#92bce4" />
  <path
     d="m 136.3,108.98 c 2.01,9.85 3.08,19.91 5.8,29.61 1.58,-2.4 3.05,-4.87 4.59,-7.3 2.59,9.93 5.26,19.88 9.81,29.13 -1.28,1.83 -2.51,3.69 -3.73,5.57 2.3,0.1 4.6,0.2 6.91,0.25 1.38,2.91 2.78,5.82 4.18,8.73 -2.28,0.18 -4.55,0.54 -6.81,0.96 -3.78,-6.89 -7.06,-14.04 -10.6,-21.05 -1.25,0.99 -2.49,1.98 -3.74,2.97 -2.22,-2.58 -4.52,-5.09 -6.98,-7.45 -0.77,10.6 4.5,20.23 8.2,29.82 -1.65,0.97 -3.28,2 -4.83,3.13 -3.2,-8.24 -6.45,-16.68 -6.44,-25.65 0.29,-3.86 0.09,-7.73 0.53,-11.57 1.07,-6.06 0.31,-12.25 1.52,-18.29 0.02,-6.32 0.68,-12.6 1.59,-18.86 z"
     id="path34"
     inkscape:connector-curvature="0"
     style="fill:#92bce4" />
  <path
     d="m 156.33,116.35 c 0.62,1.13 1.25,2.27 1.85,3.41 0.3,10.56 3.09,20.75 4.88,31.1 -2.16,3.21 -4.26,6.45 -6.56,9.56 -4.55,-9.25 -7.22,-19.2 -9.81,-29.13 3.16,-5.01 6.32,-10.02 9.64,-14.94 z"
     id="path36"
     inkscape:connector-curvature="0"
     style="fill:#ffffff" />
  <path
     d="m 96.17,117.33 c 4.97,12 9.21,24.29 14.2,36.28 0.12,-0.78 0.37,-2.34 0.49,-3.11 2.25,3.44 4.09,7.14 5.28,11.09 3.05,9.75 6.65,19.55 12.78,27.84 0.02,1.38 0.03,2.76 0.04,4.14 -0.88,1.83 -1.83,3.63 -2.78,5.43 -3.84,-7.88 -8.02,-15.59 -12.12,-23.34 -0.48,2.05 -0.94,4.1 -1.37,6.16 0.58,-7.11 0.35,-14.57 -2.48,-21.22 -3.08,-7.18 -9.82,-12.22 -17.14,-14.51 -0.44,-3.98 -0.78,-8.01 -0.15,-11.99 1.57,-5.49 1.67,-11.28 3.25,-16.77 z"
     id="path38"
     inkscape:connector-curvature="0"
     style="fill:#92bce4" />
  <path
     d="m 158.18,119.76 c 2.37,4.01 4.54,8.14 6.83,12.2 7.26,-0.01 14.51,0 21.77,0 1.93,3.19 3.9,6.36 6.15,9.33 0.22,-3.1 0.3,-6.22 0.27,-9.33 49.61,0.03 99.22,0.1 148.83,0.01 -3.17,3.83 -6,8.01 -9.81,11.26 -2.97,2.53 -6.23,4.69 -9.18,7.25 0.36,-1.79 0.65,-3.6 0.96,-5.4 -7.86,-0.37 -15.73,-0.44 -23.57,0.11 -2.09,16.87 -6.98,33.21 -9.49,50 -5.74,-0.32 -11.44,-1.12 -17.2,-1.26 -6.23,-16.36 -12.89,-32.57 -19.12,-48.94 -7.59,-0.26 -15.19,-0.17 -22.79,-0.07 -4.85,16.27 -6.18,33.32 -10.86,49.63 -4.4,-3.34 -8.63,-6.96 -13.46,-9.69 3.12,5.7 8.02,10.01 12.59,14.5 -0.04,0.41 -0.12,1.25 -0.17,1.66 -5.5,-3.61 -11.16,-7 -16.96,-10.11 -2.92,-1.63 -6.33,-1.71 -9.58,-1.89 -1.73,-2.36 -3.63,-4.59 -5.54,-6.8 -2.64,-3.58 -5.21,-7.22 -7.97,-10.71 -0.17,1.96 -0.31,3.93 -0.45,5.89 -2.68,-0.9 -5.42,-1.66 -8.18,-2.26 -0.45,-3.2 -1.41,-6.3 -3.01,-9.11 7.5,-7.66 15.22,-15.1 22.67,-22.8 -6.65,0.16 -13.33,-0.33 -19.97,0.11 -4.12,0.19 -5.68,4.72 -7.88,7.52 -1.79,-10.35 -4.58,-20.54 -4.88,-31.1 z"
     id="path40"
     inkscape:connector-curvature="0"
     style="fill:#92bce4" />
  <path
     d="m 186.78,131.96 c 2.14,0 4.28,0 6.42,0 0.03,3.11 -0.05,6.23 -0.27,9.33 -2.25,-2.97 -4.22,-6.14 -6.15,-9.33 z"
     id="path42"
     inkscape:connector-curvature="0"
     style="fill:#ffffff" />
  <path
     d="m 342.03,131.97 c 1.61,-0.01 3.23,-0.01 4.85,-0.01 -6.77,8.11 -13.94,16.57 -24.24,20.21 0.1,-0.42 0.3,-1.27 0.4,-1.69 2.95,-2.56 6.21,-4.72 9.18,-7.25 3.81,-3.25 6.64,-7.43 9.81,-11.26 z"
     id="path44"
     inkscape:connector-curvature="0"
     style="fill:#ffffff" />
  <path
     d="m 346.88,131.96 c 3.34,0 6.67,0 10.01,0 -3.08,5.78 -6.11,11.67 -10.32,16.73 -3.37,4.05 -7.27,7.61 -10.72,11.59 12.12,-5.04 20.41,-16.49 25.24,-28.32 6.18,0 12.36,0 18.54,-0.01 -3.91,5.99 -5.63,13.12 -9.74,19 -3.86,6.33 -9.4,11.39 -13.42,17.6 11.85,-5.36 16.58,-18.31 24.5,-27.7 -6.41,15.17 -17.5,27.91 -30.33,38.04 -2.73,1.95 -5.53,3.81 -8.33,5.67 -9.3,3.74 -18.55,8.07 -28.54,9.65 2.99,-14.01 5.8,-28.06 8.87,-42.04 10.3,-3.64 17.47,-12.1 24.24,-20.21 z"
     id="path46"
     inkscape:connector-curvature="0"
     style="fill:#92bce4" />
  <path
     d="m 356.89,131.96 c 1.4,0 2.79,0 4.2,0 -4.83,11.83 -13.12,23.28 -25.24,28.32 3.45,-3.98 7.35,-7.54 10.72,-11.59 4.21,-5.06 7.24,-10.95 10.32,-16.73 z"
     id="path48"
     inkscape:connector-curvature="0"
     style="fill:#ffffff" />
  <path
     d="m 379.63,131.95 c 7.43,-0.02 14.87,0.09 22.31,0.01 -2.93,8.24 -5.27,16.78 -9.59,24.44 -3.55,6.61 -8.34,12.42 -12.32,18.76 -1.42,-0.16 -2.84,-0.25 -4.26,-0.3 3.6,-4.5 7.02,-9.21 9.53,-14.42 2.88,-5.88 6.19,-11.62 8.05,-17.93 -4.2,5.14 -6.19,11.58 -9.65,17.18 -3.29,5.56 -7.84,10.19 -11.9,15.17 -7.19,0.33 -14.38,1.63 -21.16,4.03 12.83,-10.13 23.92,-22.87 30.33,-38.04 -7.92,9.39 -12.65,22.34 -24.5,27.7 4.02,-6.21 9.56,-11.27 13.42,-17.6 4.11,-5.88 5.83,-13.01 9.74,-19 z"
     id="path50"
     inkscape:connector-curvature="0"
     style="fill:#ffffff" />
  <path
     d="m 401.94,131.96 c 4.22,0 8.44,0 12.66,-0.01 -2.96,6.63 -4.11,13.9 -7.32,20.43 -3.83,9.32 -10,17.37 -14.81,26.17 -4.03,-1.52 -8.25,-2.48 -12.44,-3.39 3.98,-6.34 8.77,-12.15 12.32,-18.76 4.32,-7.66 6.66,-16.2 9.59,-24.44 z"
     id="path52"
     inkscape:connector-curvature="0"
     style="fill:#92bce4" />
  <path
     d="m 414.6,131.95 c 8.91,0.01 17.82,0.01 26.73,0.01 0.05,5.95 -2.02,11.55 -4.05,17.04 -4.72,14.87 -10.95,29.44 -20.31,42.02 -1.55,2.18 -3.98,3.4 -6.25,4.67 3.81,-9.54 10.39,-17.78 13.35,-27.71 -2.95,3.9 -5.23,8.24 -7.59,12.51 -3,5.46 -6.98,10.34 -11.35,14.75 -0.74,-7.38 -6.13,-13.56 -12.66,-16.69 4.81,-8.8 10.98,-16.85 14.81,-26.17 3.21,-6.53 4.36,-13.8 7.32,-20.43 z"
     id="path54"
     inkscape:connector-curvature="0"
     style="fill:#ffffff" />
  <path
     d="m 441.33,131.96 c 2.18,0 4.36,-0.01 6.55,0 -0.69,6.6 -3.67,12.75 -3.9,19.42 -4.31,3.65 -8.06,8.12 -10.24,13.38 -1.89,4.72 -2.08,9.9 -2.23,14.92 -4.74,6.15 -9.7,12.35 -12.36,19.73 5.7,-2.55 8.89,-8.07 12.96,-12.48 -2.89,7.87 -8.98,13.8 -14.13,20.19 -5.52,6.15 -11.12,12.35 -17.81,17.27 1.79,-9.7 5.5,-19.12 4.96,-29.15 4.37,-4.41 8.35,-9.29 11.35,-14.75 2.36,-4.27 4.64,-8.61 7.59,-12.51 -2.96,9.93 -9.54,18.17 -13.35,27.71 2.27,-1.27 4.7,-2.49 6.25,-4.67 9.36,-12.58 15.59,-27.15 20.31,-42.02 2.03,-5.49 4.1,-11.09 4.05,-17.04 z"
     id="path56"
     inkscape:connector-curvature="0"
     style="fill:#92bce4" />
  <path
     d="m 380.81,140.18 c 0.19,-2.79 1.41,-5.3 3.23,-7.38 -0.74,2.59 -1.82,5.08 -3.23,7.38 z"
     id="path58"
     inkscape:connector-curvature="0"
     style="fill:#92bce4" />
  <path
     d="m 57.09,133.96 c 4.26,0 8.52,0 12.78,0 0.63,3.66 1.29,7.33 1.94,10.99 -4.53,0.04 -9.05,0.03 -13.58,0.01 -0.38,-3.67 -0.81,-7.33 -1.14,-11 z"
     id="path60"
     inkscape:connector-curvature="0"
     style="fill:#92bce4" />
  <path
     d="m 69.87,133.96 c 7.68,0.07 15.37,-0.15 23.05,0.14 -0.63,3.98 -0.29,8.01 0.15,11.99 -7.08,-0.55 -14.14,-1.45 -21.26,-1.14 -0.65,-3.66 -1.31,-7.33 -1.94,-10.99 z"
     id="path62"
     inkscape:connector-curvature="0"
     style="fill:#ffffff" />
  <path
     d="m 418.33,134.82 c 1.66,0.6 0.86,4.56 -0.9,4.57 -0.75,-1.38 -0.27,-3.54 0.9,-4.57 z"
     id="path64"
     inkscape:connector-curvature="0"
     style="fill:#92bce4" />
  <path
     d="m 163.06,150.86 c 2.2,-2.8 3.76,-7.33 7.88,-7.52 6.64,-0.44 13.32,0.05 19.97,-0.11 -7.45,7.7 -15.17,15.14 -22.67,22.8 -2.85,0.16 -5.71,0.24 -8.56,0.21 -2.31,-0.05 -4.61,-0.15 -6.91,-0.25 1.22,-1.88 2.45,-3.74 3.73,-5.57 2.3,-3.11 4.4,-6.35 6.56,-9.56 z"
     id="path66"
     inkscape:connector-curvature="0"
     style="fill:#858788" />
  <path
     d="m 383.7,159.69 c 3.46,-5.6 5.45,-12.04 9.65,-17.18 -1.86,6.31 -5.17,12.05 -8.05,17.93 -2.51,5.21 -5.93,9.92 -9.53,14.42 -1.33,-0.03 -2.65,-0.03 -3.97,0 4.06,-4.98 8.61,-9.61 11.9,-15.17 z"
     id="path68"
     inkscape:connector-curvature="0"
     style="fill:#92bce4" />
  <path
     d="m 463.67,143.77 c 10.99,-1.67 22.32,-0.19 32.65,3.79 9.12,4.13 16.16,12.26 19.03,21.84 0.8,3.47 1.28,7.01 1.94,10.51 -2.17,0 -4.34,-0.04 -6.5,-0.01 -0.55,0.02 -1.67,0.06 -2.23,0.07 -1.61,0.08 -3.22,0.2 -4.81,0.36 -0.88,0.1 -1.76,0.2 -2.63,0.31 -2.3,0.23 -4.6,0.33 -6.9,0.44 -1.14,-4.04 -1.62,-8.67 -4.72,-11.79 -5.18,-5.98 -13.93,-7.13 -21.37,-6.09 -3.71,0.8 -7.79,1.63 -10.47,4.54 -3.49,3.48 -3.74,9.48 -1.08,13.5 3.54,4.23 8.89,6.07 13.7,8.41 7.42,3.9 15.49,6.42 22.71,10.74 2.49,1.43 4.87,3.03 7.17,4.75 12.28,10.45 11.26,30.64 1.15,42.26 -5.92,6.64 -13.9,11.53 -22.64,13.32 -8.29,1.17 -16.74,2.39 -25.08,0.83 -10.94,-0.79 -22.05,-4.99 -29.38,-13.4 -2.26,-3.37 -3.82,-7.15 -5.08,-10.99 -1.71,-4.6 -2.38,-9.49 -2.42,-14.38 6.05,0.09 12.1,-0.06 18.11,-0.73 1.82,-0.06 3.65,-0.05 5.48,-0.04 0.33,2.9 0.65,5.81 1.24,8.68 1.21,6.28 7.35,10.5 13.44,11.14 4.62,0.35 9.25,0.15 13.88,0.2 4.55,0.22 9.12,-1.24 12.47,-4.38 2.18,-1.7 3.46,-4.2 4.25,-6.8 0.9,-3.63 -0.19,-7.34 -2.28,-10.34 -6.91,-4.96 -14.98,-7.79 -22.66,-11.26 -1.55,-0.76 -3.09,-1.55 -4.64,-2.28 -1.3,-0.6 -2.61,-1.15 -3.89,-1.74 -1.38,-0.67 -2.73,-1.4 -4.06,-2.15 -9.23,-4.11 -15.75,-13.33 -16.54,-23.4 0.15,-5.02 0.34,-10.2 2.23,-14.92 2.18,-5.26 5.93,-9.73 10.24,-13.38 5.37,-5.02 12.73,-6.34 19.69,-7.61 z"
     id="path70"
     inkscape:connector-curvature="0"
     style="fill:#858788" />
  <path
     d="m 558.84,146.95 c 10.5,-3.64 21.96,-4.89 32.94,-2.92 5.81,1.46 11.98,2.39 16.93,6.04 6.55,3.78 11.06,10.23 13.93,17.1 1.46,4.1 1.78,8.49 2.64,12.74 -7.76,-0.51 -15.39,1 -23.12,1.1 -1.16,-4 -1.45,-8.72 -4.69,-11.7 -5.12,-6.09 -13.94,-7.1 -21.37,-6.12 -3.67,0.92 -7.83,1.55 -10.43,4.57 -3.59,3.46 -3.61,9.41 -1.18,13.52 4.13,4.77 10.37,6.49 15.77,9.33 4.88,2.56 10.22,4.12 15.03,6.84 6.65,3.24 13.92,6.74 17.71,13.44 4.86,7.24 4.9,16.66 2.75,24.85 -4.12,12.9 -16.1,22.2 -29.08,25.01 -8.3,1.15 -16.75,2.35 -25.08,0.8 -10.76,-0.83 -21.86,-4.79 -29.03,-13.17 -5.37,-7.3 -7.82,-16.64 -7.76,-25.63 7.94,0.44 15.79,-0.64 23.69,-1.09 0.32,4.64 0.29,9.74 3,13.74 3.36,4.35 8.86,6.87 14.36,6.6 5.27,-0.13 10.57,0.29 15.82,-0.28 3.78,-1.03 7.19,-3.31 9.88,-6.13 2.38,-3.59 3.31,-8.48 1.2,-12.42 -1.85,-4.2 -6.45,-5.85 -10.21,-7.86 -4.5,-2.48 -9.56,-3.68 -14.11,-6.02 -4.88,-2.84 -10.36,-4.43 -14.97,-7.74 -13.36,-6.91 -17.4,-25.13 -11.17,-38.17 3.31,-7.25 9.59,-12.77 16.55,-16.43 z"
     id="path72"
     inkscape:connector-curvature="0"
     style="fill:#858788" />
  <path
     d="m 24.17,144.82 c 11.35,0.02 22.7,0.23 34.06,0.14 4.53,0.02 9.05,0.03 13.58,-0.01 7.12,-0.31 14.18,0.59 21.26,1.14 7.32,2.29 14.06,7.33 17.14,14.51 2.83,6.65 3.06,14.11 2.48,21.22 -0.46,2.38 -1.01,4.74 -1.65,7.08 -1.05,2.34 -2.24,4.61 -3.52,6.83 -3.36,5.08 -8.32,9.25 -14,11.51 -1.7,0.76 -3.41,1.51 -5.14,2.22 -3.28,1.41 -6.88,1.77 -10.42,1.87 4.88,3.89 8.07,9.36 10.84,14.85 6.36,11.09 10.49,23.26 15.94,34.78 l -25.81,-0.02 c -3.96,-10.55 -8.05,-21.05 -12.72,-31.31 -2.67,-5.86 -6.03,-11.74 -11.47,-15.43 -1.37,-1.02 -3.14,-0.99 -4.76,-1.14 -5.43,-0.27 -10.87,-0.02 -16.31,-0.14 l -9.81,48.01 -23.86,0 z"
     id="path74"
     inkscape:connector-curvature="0"
     style="fill:#858788"
     sodipodi:nodetypes="ccccccccccccccccccccc" />
  <path
     d="m 231.83,144.92 c 7.6,-0.1 15.2,-0.19 22.79,0.07 6.23,16.37 12.89,32.58 19.12,48.94 0.9,2.43 1.87,4.83 2.83,7.23 2.81,7 5.29,14.16 8.83,20.84 1.22,-6.04 2.23,-12.11 3.53,-18.13 0.64,-2.9 1.41,-5.77 2.01,-8.68 2.51,-16.79 7.4,-33.13 9.49,-50 7.84,-0.55 15.71,-0.48 23.57,-0.11 -0.31,1.8 -0.6,3.61 -0.96,5.4 -0.1,0.42 -0.3,1.27 -0.4,1.69 -3.07,13.98 -5.88,28.03 -8.87,42.04 -0.88,3.54 -1.61,7.11 -2.23,10.7 -1.63,7.63 -2.7,15.38 -4.63,22.94 l -7.15,33.08 c -7.58,0.03 -15.17,0.09 -22.76,-0.05 -5.74,-15.5 -11.87,-30.85 -17.96,-46.22 -4.47,-10.8 -8.6,-21.75 -12.65,-32.71 -1.8,8.39 -2.9,16.92 -5.09,25.23 -1.75,9.23 -4.1,18.34 -5.35,27.66 -0.68,3.07 -1.4,6.13 -2.11,9.2 -1.44,5.56 -2.15,11.27 -3.16,16.92 -7.59,-0.01 -15.19,0.02 -22.78,-0.02 l -0.06,-0.85 -0.06,-0.84 c 1.47,-8.64 3.93,-17.07 5.39,-25.71 0.91,-4.45 1.97,-8.87 2.69,-13.35 0.88,-6.5 3.3,-12.66 4.07,-19.17 0.05,-0.41 0.13,-1.25 0.17,-1.66 0.22,-1.62 0.52,-3.22 0.87,-4.81 4.68,-16.31 6.01,-33.36 10.86,-49.63 z"
     id="path76"
     inkscape:connector-curvature="0"
     style="fill:#858788"
     sodipodi:nodetypes="ccccccccccccccccccccccccccccccc" />
  <path
     d="m 410.78,155.98 c 0.99,-3.95 2.81,-7.63 5.18,-10.93 -1.38,3.79 -3.14,7.44 -5.18,10.93 z"
     id="path78"
     inkscape:connector-curvature="0"
     style="fill:#92bce4" />
  <path
     d="m 135.73,150.4 c 2.46,2.36 4.76,4.87 6.98,7.45 1.25,-0.99 2.49,-1.98 3.74,-2.97 3.54,7.01 6.82,14.16 10.6,21.05 -4.53,0.86 -9.13,1.88 -13.12,4.29 -3.7,-9.59 -8.97,-19.22 -8.2,-29.82 z"
     id="path80"
     inkscape:connector-curvature="0"
     style="fill:#ffffff" />
  <path
     d="m 131.33,177.25 c 1.06,-6.48 0.28,-13.08 1.33,-19.55 -0.01,8.97 3.24,17.41 6.44,25.65 -3.17,2.59 -6.08,5.47 -9.09,8.25 1.24,-4.7 0.61,-9.59 1.32,-14.35 z"
     id="path82"
     inkscape:connector-curvature="0"
     style="fill:#ffffff" />
  <path
     d="m 423.97,167.24 c 0.77,-3.49 2.53,-6.64 4.81,-9.37 -0.73,3.51 -2.22,6.85 -4.81,9.37 z"
     id="path84"
     inkscape:connector-curvature="0"
     style="fill:#92bce4" />
  <path
     d="m 457.66,167.74 c 2.68,-2.91 6.76,-3.74 10.47,-4.54 7.44,-1.04 16.19,0.11 21.37,6.09 3.1,3.12 3.58,7.75 4.72,11.79 2.3,-0.11 4.6,-0.21 6.9,-0.44 -1.34,7.07 -4.48,13.61 -8.13,19.75 -7.22,-4.32 -15.29,-6.84 -22.71,-10.74 -4.81,-2.34 -10.16,-4.18 -13.7,-8.41 -2.66,-4.02 -2.41,-10.02 1.08,-13.5 z"
     id="path86"
     inkscape:connector-curvature="0"
     style="fill:#ffffff" />
  <path
     d="m 43.97,163.99 c 6.05,-0.05 12.1,-0.02 18.16,-0.04 1.59,6.38 2.48,12.95 4.81,19.13 1.33,3.56 2.47,7.19 3.45,10.86 -3.85,-0.01 -7.61,0.93 -11.45,1.01 -7.05,0.19 -14.09,-0.19 -21.14,-0.27 2.38,-10.17 3.82,-20.52 6.17,-30.69 z"
     id="path88"
     inkscape:connector-curvature="0"
     style="fill:#ffffff" />
  <path
     d="m 62.13,163.95 c 4.74,-0.08 9.49,-0.06 14.23,0.03 2.23,7.89 5.41,15.46 7.72,23.32 -2.48,4.51 -8.46,7.26 -13.69,6.64 -0.98,-3.67 -2.12,-7.3 -3.45,-10.86 -2.33,-6.18 -3.22,-12.75 -4.81,-19.13 z"
     id="path90"
     inkscape:connector-curvature="0"
     style="fill:#92bce4" />
  <path
     d="m 76.36,163.98 c 2.68,0.56 5.41,0.86 8.05,1.56 7.89,4.33 7.1,17.46 -0.33,21.76 -2.31,-7.86 -5.49,-15.43 -7.72,-23.32 z"
     id="path92"
     inkscape:connector-curvature="0"
     style="fill:#ffffff" />
  <path
     d="m 159.68,166.24 c 2.85,0.03 5.71,-0.05 8.56,-0.21 1.6,2.81 2.56,5.91 3.01,9.11 -2.46,-0.2 -4.93,-0.26 -7.39,-0.17 -1.4,-2.91 -2.8,-5.82 -4.18,-8.73 z"
     id="path94"
     inkscape:connector-curvature="0"
     style="fill:#ffffff" />
  <path
     d="m 179.88,171.51 c 2.76,3.49 5.33,7.13 7.97,10.71 -2.75,-1.7 -5.5,-3.42 -8.42,-4.82 0.14,-1.96 0.28,-3.93 0.45,-5.89 z"
     id="path96"
     inkscape:connector-curvature="0"
     style="fill:#ffffff" />
  <path
     d="m 157.05,175.93 c 2.26,-0.42 4.53,-0.78 6.81,-0.96 2.46,-0.09 4.93,-0.03 7.39,0.17 2.76,0.6 5.5,1.36 8.18,2.26 2.92,1.4 5.67,3.12 8.42,4.82 1.91,2.21 3.81,4.44 5.54,6.8 2.53,4.67 4.25,9.76 5.13,14.99 0.63,6.7 -0.23,13.41 -0.29,20.11 -8.76,2.11 -17.86,0.79 -26.77,1.11 -3.11,-0.05 -6.21,-0.14 -9.32,-0.11 -2.31,0.04 -4.61,0.11 -6.92,0.13 -2.85,-0.01 -5.7,-0.05 -8.55,-0.03 -1.31,0 -2.61,0 -3.91,0.01 0.14,4.46 0.14,9.25 2.65,13.15 3.96,6.57 12.98,9.31 19.89,5.81 3.65,-1.83 6.12,-5.13 8.94,-7.95 1.42,-1.51 3.68,-1.15 5.54,-1.33 4.91,1.7 10.08,2.32 15.19,3.08 -1.42,2.59 -2.83,5.2 -4.43,7.69 -3.08,3.81 -6.77,7.07 -10.54,10.19 -6.21,4.92 -14.47,5.89 -22.11,6.4 -8.33,-0.44 -17.49,-1.47 -23.85,-7.48 -10.46,-8.39 -14.91,-22.52 -13.85,-35.58 0.25,-2.21 0.62,-4.4 1.08,-6.57 1.24,-4.67 2.64,-9.35 4.91,-13.64 0.95,-1.8 1.9,-3.6 2.78,-5.43 0.26,-0.49 0.79,-1.48 1.05,-1.97 3.01,-2.78 5.92,-5.66 9.09,-8.25 1.55,-1.13 3.18,-2.16 4.83,-3.13 3.99,-2.41 8.59,-3.43 13.12,-4.29 z"
     id="path98"
     inkscape:connector-curvature="0"
     style="fill:#858788" />
  <path
     d="m 350.64,178.89 c 6.78,-2.4 13.97,-3.7 21.16,-4.03 1.32,-0.03 2.64,-0.03 3.97,0 1.42,0.05 2.84,0.14 4.26,0.3 4.19,0.91 8.41,1.87 12.44,3.39 6.53,3.13 11.92,9.31 12.66,16.69 0.54,10.03 -3.17,19.45 -4.96,29.15 -2.29,10.41 -6.45,21.04 -3.72,31.81 0.35,1.3 0.77,2.58 1.19,3.87 l 0.28,0.85 c -7.65,0.09 -15.3,0.02 -22.95,0.05 -0.8,-2.95 -1.48,-5.93 -2.14,-8.91 -3.43,2.55 -6.53,5.71 -10.59,7.25 -8.46,3.51 -18.46,4.1 -26.81,-0.03 -8.99173,-4.324 -11.24742,-11.85934 -11.86,-14.73 0.23,-6.56 -0.56,-13.51 2.79,-19.51 3.4,-5.81 9.09,-10.16 15.58,-11.97 7.09,-2.32 14.61,-1.97 21.91,-2.98 5.43,-0.69 11.1,-0.81 16.2,-2.96 3.53,-2.61 3.16,-7.76 1.76,-11.47 -4.66,-5.08 -12.41,-5.83 -18.58,-3.36 -3.82,1.74 -6.18,5.4 -8.63,8.64 -7.02,-0.73 -14.07,-2.18 -21.15,-1.39 1.07,-5.9 4.71,-10.84 8.86,-14.99 2.8,-1.86 5.6,-3.72 8.33,-5.67 z"
     id="path100"
     inkscape:connector-curvature="0"
     style="fill:#858788"
     sodipodi:nodetypes="ccccccccccccccccccccccccc" />
  <path
     d="m 114.06,175.66 c 4.1,7.75 8.28,15.46 12.12,23.34 -2.27,4.29 -3.67,8.97 -4.91,13.64 -3.83,-7.7 -8.21,-15.31 -10.23,-23.74 0.64,-2.34 1.19,-4.7 1.65,-7.08 0.43,-2.06 0.89,-4.11 1.37,-6.16 z"
     id="path102"
     inkscape:connector-curvature="0"
     style="fill:#ffffff" />
  <path
     d="m 419.15,199.41 c 2.66,-7.38 7.62,-13.58 12.36,-19.73 0.79,10.07 7.31,19.29 16.54,23.4 -4.25,6.43 -9.19,12.39 -13.23,18.97 -6.01,0.67 -12.06,0.82 -18.11,0.73 0.04,4.89 0.71,9.78 2.42,14.38 -6.21,7.73 -14.26,13.9 -22.68,19.04 -2.73,-10.77 1.43,-21.4 3.72,-31.81 6.69,-4.92 12.29,-11.12 17.81,-17.27 5.15,-6.39 11.24,-12.32 14.13,-20.19 -4.07,4.41 -7.26,9.93 -12.96,12.48 z"
     id="path104"
     inkscape:connector-curvature="0"
     style="fill:#ffffff" />
  <path
     d="m 501.12,180.64 c 0.87,-0.11 1.75,-0.21 2.63,-0.31 -0.84,3.08 -1.35,6.25 -1.49,9.45 3.43,-2.26 6.3,-5.46 6.3,-9.81 0.56,-0.01 1.68,-0.05 2.23,-0.07 -3.95,8.23 -6.78,16.95 -10.63,25.24 -2.3,-1.72 -4.68,-3.32 -7.17,-4.75 3.65,-6.14 6.79,-12.68 8.13,-19.75 z"
     id="path106"
     inkscape:connector-curvature="0"
     style="fill:#92bce4" />
  <path
     d="m 503.75,180.33 c 1.59,-0.16 3.2,-0.28 4.81,-0.36 0,4.35 -2.87,7.55 -6.3,9.81 0.14,-3.2 0.65,-6.37 1.49,-9.45 z"
     id="path108"
     inkscape:connector-curvature="0"
     style="fill:#ffffff" />
  <path
     d="m 246.39,181.95 c 4.05,10.96 8.18,21.91 12.65,32.71 -5.83,-2.71 -12.3,-3.93 -17.74,-7.48 2.19,-8.31 3.29,-16.84 5.09,-25.23 z"
     id="path110"
     inkscape:connector-curvature="0"
     style="fill:#92bce4" />
  <path
     d="m 313.77,194.21 c 9.99,-1.58 19.24,-5.91 28.54,-9.65 -4.15,4.15 -7.79,9.09 -8.86,14.99 -7.07,2.63 -14.52,3.94 -21.91,5.36 0.62,-3.59 1.35,-7.16 2.23,-10.7 z"
     id="path112"
     inkscape:connector-curvature="0"
     style="fill:#ffffff" />
  <path
     d="m 207.51,184.86 c 4.83,2.73 9.06,6.35 13.46,9.69 -0.35,1.59 -0.65,3.19 -0.87,4.81 -4.57,-4.49 -9.47,-8.8 -12.59,-14.5 z"
     id="path114"
     inkscape:connector-curvature="0"
     style="fill:#ffffff" />
  <path
     d="m 111.04,188.9 c 2.02,8.43 6.4,16.04 10.23,23.74 -0.46,2.17 -0.83,4.36 -1.08,6.57 -4.81,-7.49 -9.32,-15.21 -12.67,-23.48 1.28,-2.22 2.47,-4.49 3.52,-6.83 z"
     id="path116"
     inkscape:connector-curvature="0"
     style="fill:#92bce4" />
  <path
     d="m 193.39,189.02 c 3.25,0.18 6.66,0.26 9.58,1.89 5.8,3.11 11.46,6.5 16.96,10.11 -0.77,6.51 -3.19,12.67 -4.07,19.17 -6.14,-5 -11.35,-11.02 -17.34,-16.18 -0.88,-5.23 -2.6,-10.32 -5.13,-14.99 z"
     id="path118"
     inkscape:connector-curvature="0"
     style="fill:#ffffff" />
  <path
     d="m 363.23,192.3 c 6.17,-2.47 13.92,-1.72 18.58,3.36 -5.36,5.56 -11.74,9.92 -17.96,14.43 -7.3,1.01 -14.82,0.66 -21.91,2.98 -6.49,1.81 -12.18,6.16 -15.58,11.97 -6.58,0.22 -12.97,1.89 -19.45,2.81 1.93,-7.56 3,-15.31 4.63,-22.94 7.39,-1.42 14.84,-2.73 21.91,-5.36 7.08,-0.79 14.13,0.66 21.15,1.39 2.45,-3.24 4.81,-6.9 8.63,-8.64 z"
     id="path120"
     inkscape:connector-curvature="0"
     style="fill:#92bce4" />
  <path
     d="m 152.22,196.29 c 4.3,-2.48 9.21,-5.44 14.38,-4.06 4.16,1.58 8.41,4.38 9.82,8.84 1.35,3.46 1.57,7.19 1.59,10.87 -5.68,0.03 -11.36,0.03 -17.03,0 -3.61,-4.8 -6.89,-9.9 -8.76,-15.65 z"
     id="path122"
     inkscape:connector-curvature="0"
     style="fill:#ffffff" />
  <path
     d="m 273.74,193.93 c 5.76,0.14 11.46,0.94 17.2,1.26 -0.6,2.91 -1.37,5.78 -2.01,8.68 -4.11,-0.95 -8.23,-1.85 -12.36,-2.71 -0.96,-2.4 -1.93,-4.8 -2.83,-7.23 z"
     id="path124"
     inkscape:connector-curvature="0"
     style="fill:#ffffff" />
  <path
     d="m 148.03,201.83 c 1.43,-1.82 2.84,-3.66 4.19,-5.54 1.87,5.75 5.15,10.85 8.76,15.65 -2.31,0.01 -4.62,0.03 -6.92,0.04 -2.01,-3.38 -4.03,-6.76 -6.03,-10.15 z"
     id="path126"
     inkscape:connector-curvature="0"
     style="fill:#92bce4" />
  <path
     d="m 381.81,195.66 c 1.4,3.71 1.77,8.86 -1.76,11.47 -5.1,2.15 -10.77,2.27 -16.2,2.96 6.22,-4.51 12.6,-8.87 17.96,-14.43 z"
     id="path128"
     inkscape:connector-curvature="0"
     style="fill:#ffffff" />
  <path
     d="m 276.57,201.16 c 4.13,0.86 8.25,1.76 12.36,2.71 -1.3,6.02 -2.31,12.09 -3.53,18.13 -3.54,-6.68 -6.02,-13.84 -8.83,-20.84 z"
     id="path130"
     inkscape:connector-curvature="0"
     style="fill:#92bce4" />
  <path
     d="m 148.03,201.83 c 2,3.39 4.02,6.77 6.03,10.15 -3.12,-0.01 -6.24,-0.05 -9.35,-0.18 0.88,-3.39 2.06,-6.7 3.32,-9.97 z"
     id="path132"
     inkscape:connector-curvature="0"
     style="fill:#ffffff" />
  <path
     d="m 448.05,203.08 c 1.33,0.75 2.68,1.48 4.06,2.15 -0.96,1 -1.92,2 -2.87,3 1.09,0.93 2.18,1.87 3.28,2.8 1.15,-1.36 2.31,-2.71 3.48,-4.06 1.55,0.73 3.09,1.52 4.64,2.28 -7.69,5.92 -11.54,15.34 -19.1,21.44 -0.59,-2.87 -0.91,-5.78 -1.24,-8.68 -1.83,-0.01 -3.66,-0.02 -5.48,0.04 4.04,-6.58 8.98,-12.54 13.23,-18.97 z"
     id="path134"
     inkscape:connector-curvature="0"
     style="fill:#92bce4" />
  <path
     d="m 198.52,204.01 c 5.99,5.16 11.2,11.18 17.34,16.18 -0.72,4.48 -1.78,8.9 -2.69,13.35 -5.29,-2.63 -10.06,-6.12 -14.94,-9.42 0.06,-6.7 0.92,-13.41 0.29,-20.11 z"
     id="path136"
     inkscape:connector-curvature="0"
     style="fill:#92bce4" />
  <path
     d="m 449.24,208.23 c 0.95,-1 1.91,-2 2.87,-3 1.28,0.59 2.59,1.14 3.89,1.74 -1.17,1.35 -2.33,2.7 -3.48,4.06 -1.1,-0.93 -2.19,-1.87 -3.28,-2.8 z"
     id="path138"
     inkscape:connector-curvature="0"
     style="fill:#ffffff" />
  <path
     d="m 88.38,209.46 c 1.73,-0.71 3.44,-1.46 5.14,-2.22 3.61,6.09 6.47,12.62 10.51,18.45 2.47,3.67 4.58,7.57 6.44,11.59 -8.16,-8.63 -14.91,-18.41 -22.09,-27.82 z"
     id="path140"
     inkscape:connector-curvature="0"
     style="fill:#92bce4" />
  <path
     d="m 441.54,230.69 c 7.56,-6.1 11.41,-15.52 19.1,-21.44 7.68,3.47 15.75,6.3 22.66,11.26 -4.75,7.22 -9.44,14.47 -14.44,21.52 -4.63,-0.05 -9.26,0.15 -13.88,-0.2 -6.09,-0.64 -12.23,-4.86 -13.44,-11.14 z"
     id="path142"
     inkscape:connector-curvature="0"
     style="fill:#ffffff" />
  <path
     d="m 483.3,220.51 c 2.09,3 3.18,6.71 2.28,10.34 -2.23,1.68 -3.72,4.06 -4.25,6.8 -3.35,3.14 -7.92,4.6 -12.47,4.38 5,-7.05 9.69,-14.3 14.44,-21.52 z"
     id="path144"
     inkscape:connector-curvature="0"
     style="fill:#92bce4" />
  <path
     d="m 375.13,222.94 c 0.81,-0.51 1.64,-1.01 2.47,-1.5 -0.96,4.62 -1.42,9.46 -3.56,13.72 -3.8,6.89 -12,11.52 -19.89,10.47 -4.26,-0.66 -6.82,-4.35 -8.61,-7.92 10.8,-2.77 20.34,-8.77 29.59,-14.77 z"
     id="path146"
     inkscape:connector-curvature="0"
     style="fill:#92bce4" />
  <path
     d="m 356.12,225.45 c 6.26,-1.34 12.53,-3.22 19.01,-2.51 -9.25,6 -18.79,12 -29.59,14.77 0.75,-2.72 0.66,-6.11 3.06,-8.02 2.19,-1.87 4.72,-3.48 7.52,-4.24 z"
     id="path148"
     inkscape:connector-curvature="0"
     style="fill:#ffffff" />
  <path
     d="m 171.46,225.23 c 8.91,-0.32 18.01,1 26.77,-1.11 4.88,3.3 9.65,6.79 14.94,9.42 -1.46,8.64 -3.92,17.07 -5.39,25.71 -5.52,-4.81 -11.61,-8.91 -17.24,-13.57 1.6,-2.49 3.01,-5.1 4.43,-7.69 -5.11,-0.76 -10.28,-1.38 -15.19,-3.08 -3.21,-2.82 -5.89,-6.18 -8.32,-9.68 z"
     id="path150"
     inkscape:connector-curvature="0"
     style="fill:#ffffff" />
  <path
     d="m 142.76,225.23 c 1.3,-0.01 2.6,-0.01 3.91,-0.01 5.26,7.2 12.03,13.06 18.63,18.97 -6.91,3.5 -15.93,0.76 -19.89,-5.81 -2.51,-3.9 -2.51,-8.69 -2.65,-13.15 z"
     id="path152"
     inkscape:connector-curvature="0"
     style="fill:#ffffff" />
  <path
     d="m 146.67,225.22 c 2.85,-0.02 5.7,0.02 8.55,0.03 2.91,5.23 7.99,8.67 13.35,11.03 -0.96,-4.3 -3.1,-8.24 -6.43,-11.16 3.11,-0.03 6.21,0.06 9.32,0.11 2.43,3.5 5.11,6.86 8.32,9.68 -1.86,0.18 -4.12,-0.18 -5.54,1.33 -2.82,2.82 -5.29,6.12 -8.94,7.95 -6.6,-5.91 -13.37,-11.77 -18.63,-18.97 z"
     id="path154"
     inkscape:connector-curvature="0"
     style="fill:#92bce4" />
  <path
     d="m 155.22,225.25 c 2.31,-0.02 4.61,-0.09 6.92,-0.13 3.33,2.92 5.47,6.86 6.43,11.16 -5.36,-2.36 -10.44,-5.8 -13.35,-11.03 z"
     id="path156"
     inkscape:connector-curvature="0"
     style="fill:#ffffff" />
  <path
     d="m 481.33,237.65 c 0.53,-2.74 2.02,-5.12 4.25,-6.8 -0.79,2.6 -2.07,5.1 -4.25,6.8 z"
     id="path158"
     inkscape:connector-curvature="0"
     style="fill:#ffffff" />
  <path
     d="m 235.95,234.84 c 5.92,2.11 11.06,5.8 16.72,8.46 4.71,2.65 9.98,4.08 14.67,6.77 -5.49,0.84 -11.14,0.52 -16.49,-0.96 -5.69,-1.65 -11.68,-2.35 -17.01,-5.07 0.71,-3.07 1.43,-6.13 2.11,-9.2 z"
     id="path160"
     inkscape:connector-curvature="0"
     style="fill:#92bce4" />
  <path
     d="m 419.13,237.16 c 1.26,3.84 2.82,7.62 5.08,10.99 -5.15,3.47 -9.57,7.99 -15.05,10.97 -3.67,1.3 -7.69,0.7 -11.52,0.95 -0.42,-1.29 -0.84,-2.57 -1.19,-3.87 8.42,-5.14 16.47,-11.31 22.68,-19.04 z"
     id="path162"
     inkscape:connector-curvature="0"
     style="fill:#92bce4" />
  <path
     d="m 180,255.87 c 3.77,-3.12 7.46,-6.38 10.54,-10.19 5.63,4.66 11.72,8.76 17.24,13.57 l 0.06,0.84 c -6.66,-0.4 -13.34,0.05 -19.99,-0.28 -3.11,-0.01 -5.49,-2.23 -7.85,-3.94 z"
     id="path164"
     inkscape:connector-curvature="0"
     style="fill:#92bce4" />
</svg>
